<svg xmlns="http://www.w3.org/2000/svg">
<defs>
<font id="Lumen-Regular" horiz-adv-x="463" >
  <font-face 
    font-family="Lumen"
    font-weight="400"
    font-stretch="normal"
    units-per-em="1000"
    panose-1="0 0 5 0 0 0 0 0 0 0"
    ascent="800"
    descent="-200"
    x-height="794"
    cap-height="796"
    bbox="49.8824 -48 825 928"
    underline-thickness="50"
    underline-position="-200"
    unicode-range="U+0020-2212"
  />
<missing-glyph horiz-adv-x="577" 
d="M50 789h477v-784h-477v784zM491 48v693h-405v-693h405zM189 186h-40l118 254l-118 254h40l101 -218l100 218h39l-116 -254l116 -254h-39l-100 219zM408 116q-2 -1 -2 -6q0 -4 2 -7q1 -2 6 -2q6 0 9 2l2 -2q-3 -7 -11 -7q-2 0 -6 2l-5 2q-3 2 -4 10q-2 8 3 12q7 5 12 5
q6 0 11 -5l-2 -4l-2 1q-1 0 -1 1q0 2 -5 2h-1q-4 -2 -6 -4zM125 107v-12h-8v29h22v-4h-14v-8h13v-5h-13zM158 95q-9 5 -9 13q0 9 5 12q3 4 10 4q11 0 15 -7q5 -7 1 -14q-2 -7 -11 -9l-5 -1q-2 0 -6 2zM215 105v19h6v-29h-1q-1 -1 -3 -1l-1 2q-2 1 -3 2q-3 3 -4 3
q0 1 -0.5 2.5t-1.5 2.5q-2 3 -6 7v-18h-7v29h6q1 0 2 -1.5t2 -1.5q0 -1 2 -3.5t3 -4.5q4 -4 6 -8zM235 120v4h24v-4h-9v-25h-6v25h-9zM325 110q6 0 6 -7q2 -5 -6 -8q0 -1 -5 -1q-4 0 -14 5q2 1 2 2t1 2l9 -2h3h3q0 5 -7 7q0 -1 -1 0q0 1 -3 1q-4 1 -4 7q-1 5 3 7q3 1 7 1
q9 0 12 -2l-3 -5h-2h-1l-1 1q-1 0 -3 2h-3q-2 0 -2 -3q0 -2 2 -4q6 0 7 -3zM341 120v4h26v-4h-10v-25h-7v25h-9zM378 95v29h7v-29h-7zM445 101l-3 -6h-6q9 18 11 29h8l6 -14l4 -8l3 -7h-7l-2 6h-14zM290 110l4 -8q0 -3 2 -7h-7v3l-1 1q0 1 -1 2h-13q-1 0 -1 -3v-1
q-1 0 -2 -2h-6l13 28h6q0 -3 3 -6t3 -7zM157 114q-1 -1 -1.5 -3.5t0.5 -3.5q1 -7 8 -7q3 0 4 1q6 0 6 8v1q0 5 -3 7q-3 3 -7 3q0 -2 -2 -2q-2 -1 -5 -4zM284 107v2l-2 3v3l-1 1l-1 1l-5 -10h9zM451 117l-5 -10h9v2q0 3 -1 3v2q0 1 -1 1t-1 1t-1 1z" />
    <glyph glyph-name=".notdef" horiz-adv-x="577" 
d="M50 789h477v-784h-477v784zM491 48v693h-405v-693h405zM189 186h-40l118 254l-118 254h40l101 -218l100 218h39l-116 -254l116 -254h-39l-100 219zM408 116q-2 -1 -2 -6q0 -4 2 -7q1 -2 6 -2q6 0 9 2l2 -2q-3 -7 -11 -7q-2 0 -6 2l-5 2q-3 2 -4 10q-2 8 3 12q7 5 12 5
q6 0 11 -5l-2 -4l-2 1q-1 0 -1 1q0 2 -5 2h-1q-4 -2 -6 -4zM125 107v-12h-8v29h22v-4h-14v-8h13v-5h-13zM158 95q-9 5 -9 13q0 9 5 12q3 4 10 4q11 0 15 -7q5 -7 1 -14q-2 -7 -11 -9l-5 -1q-2 0 -6 2zM215 105v19h6v-29h-1q-1 -1 -3 -1l-1 2q-2 1 -3 2q-3 3 -4 3
q0 1 -0.5 2.5t-1.5 2.5q-2 3 -6 7v-18h-7v29h6q1 0 2 -1.5t2 -1.5q0 -1 2 -3.5t3 -4.5q4 -4 6 -8zM235 120v4h24v-4h-9v-25h-6v25h-9zM325 110q6 0 6 -7q2 -5 -6 -8q0 -1 -5 -1q-4 0 -14 5q2 1 2 2t1 2l9 -2h3h3q0 5 -7 7q0 -1 -1 0q0 1 -3 1q-4 1 -4 7q-1 5 3 7q3 1 7 1
q9 0 12 -2l-3 -5h-2h-1l-1 1q-1 0 -3 2h-3q-2 0 -2 -3q0 -2 2 -4q6 0 7 -3zM341 120v4h26v-4h-10v-25h-7v25h-9zM378 95v29h7v-29h-7zM445 101l-3 -6h-6q9 18 11 29h8l6 -14l4 -8l3 -7h-7l-2 6h-14zM290 110l4 -8q0 -3 2 -7h-7v3l-1 1q0 1 -1 2h-13q-1 0 -1 -3v-1
q-1 0 -2 -2h-6l13 28h6q0 -3 3 -6t3 -7zM157 114q-1 -1 -1.5 -3.5t0.5 -3.5q1 -7 8 -7q3 0 4 1q6 0 6 8v1q0 5 -3 7q-3 3 -7 3q0 -2 -2 -2q-2 -1 -5 -4zM284 107v2l-2 3v3l-1 1l-1 1l-5 -10h9zM451 117l-5 -10h9v2q0 3 -1 3v2q0 1 -1 1t-1 1t-1 1z" />
    <glyph glyph-name=".null" horiz-adv-x="0" 
 />
    <glyph glyph-name="nonmarkingreturn" horiz-adv-x="333" 
 />
    <glyph glyph-name="space" unicode=" " horiz-adv-x="400" 
 />
    <glyph glyph-name="exclam" unicode="!" horiz-adv-x="205" 
d="M50 775l22 -678h53l30 678h-105zM58 33v-44h89v44h-89z" />
    <glyph glyph-name="quotedbl" unicode="&#x22;" horiz-adv-x="424" 
d="M101 859v-45h27l-78 -29v-11l139 32v53h-88zM286 859v-45h28l-79 -29v-11l139 32v53h-88z" />
    <glyph glyph-name="numbersign" unicode="#" horiz-adv-x="729" 
d="M233 792l-53 -301h-94l-4 -11h96l-30 -171h-94l-4 -12h96l-52 -300h107l53 300h187l-53 -300h107l53 300h98l1 12h-97l30 171h98l1 11h-97l52 301h-105l-53 -301h-189l53 301h-107zM286 480h187l-31 -171h-187z" />
    <glyph glyph-name="dollar" unicode="$" horiz-adv-x="464" 
d="M217 826v-34h-59q-46 0 -77 -15q-31 -16 -31 -38v-281q0 -21 31 -37t77 -16h105q20 0 31 -7q12 -6 12 -15v-353q0 -8 -12 -15q-11 -7 -31 -7h-62q-20 0 -31 7q-12 7 -12 15v172h-108v-152q0 -21 31 -37t77 -16h59v-33h22v33h67q45 0 76 16q32 18 32 37v313q0 20 -32 38
q-31 15 -76 15h-105q-20 0 -31 7q-12 7 -12 15v321q0 9 12 15q11 7 31 7h62q20 0 31 -7q12 -6 12 -15v-194h108v174q0 20 -32 38q-31 15 -76 15h-67v34h-22z" />
    <glyph glyph-name="percent" unicode="%" horiz-adv-x="407" 
d="M319 796l-256 -796h28l253 796h-25zM50 715v-45h89v45h-89zM269 126v-45h88v45h-88z" />
    <glyph glyph-name="ampersand" unicode="&#x26;" horiz-adv-x="497" 
d="M156 795q-44 0 -75 -15.5t-31 -37.5v-280q0 -16 16 -29t43 -19q-26 -7 -42.5 -20t-16.5 -28v-312q0 -22 31 -38t75 -16h150q44 0 75.5 16t31.5 38v354h34v11h-34v41h-107v-41h-106q-18 0 -31 6.5t-13 15.5v321q0 9 13 15.5t31 6.5h61q19 0 32 -6.5t13 -15.5v-84h107v64
q0 22 -31.5 37.5t-75.5 15.5h-150zM306 408v-375q0 -9 -13 -15.5t-32 -6.5h-61q-18 0 -31 6.5t-13 15.5v353q0 9 13 15.5t31 6.5h106z" />
    <glyph glyph-name="quotesingle" unicode="'" horiz-adv-x="239" 
d="M99 859v-45h27l-76 -29v-11l139 32v53h-90z" />
    <glyph glyph-name="parenleft" unicode="(" horiz-adv-x="358" 
d="M157 792q-44 0 -75.5 -16t-31.5 -38v-688q0 -22 31.5 -37.5t75.5 -15.5h151v11h-88q-26 0 -44.5 9t-18.5 22v711q0 12 19 21.5t44 9.5h88v11h-151z" />
    <glyph glyph-name="parenright" unicode=")" horiz-adv-x="356" 
d="M199 792q44 0 75.5 -16t31.5 -38v-688q0 -22 -31.5 -37.5t-75.5 -15.5h-149v11h86q27 0 45 9t18 22v711q0 12 -18.5 21.5t-44.5 9.5h-86v11h149z" />
    <glyph glyph-name="asterisk" unicode="*" horiz-adv-x="508" 
d="M272 837l18 91h-70l11 -90l-146 52l-35 -31l162 -40l-162 -37l35 -31l146 50l-11 -88h70l-16 89l149 -51l35 31l-162 37l162 40l-35 31z" />
    <glyph glyph-name="plus" unicode="+" horiz-adv-x="419" 
d="M50 368h139v-133h40v133h140v38h-140v132h-40v-132h-139v-38z" />
    <glyph glyph-name="comma" unicode="," horiz-adv-x="239" 
d="M100 37v-44h27l-77 -31v-9l139 32v52h-89z" />
    <glyph glyph-name="hyphen" unicode="-" horiz-adv-x="418" 
d="M50 372h318v20h-318v-20z" />
    <glyph glyph-name="period" unicode="." horiz-adv-x="188" 
d="M50 46v-45h88v45h-88z" />
    <glyph glyph-name="slash" unicode="/" 
d="M306 792l-256 -795h107l256 795h-107z" />
    <glyph glyph-name="zero" unicode="0" horiz-adv-x="465" 
d="M157 794q-43 0 -75 -16t-32 -38v-688q0 -22 32 -38t75 -16h151q44 0 75.5 16t31.5 38v688q0 22 -31.5 38t-75.5 16h-151zM263 782q19 0 32 -6t13 -15v-729q0 -9 -13 -15.5t-32 -6.5h-61q-18 0 -31.5 6.5t-13.5 15.5v729q0 9 13.5 15t31.5 6h61z" />
    <glyph glyph-name="one" unicode="1" horiz-adv-x="308" 
d="M50 794v-12h53v-772h-48v-12h203v12h-48v784h-160z" />
    <glyph glyph-name="two" unicode="2" horiz-adv-x="465" 
d="M157 794q-44 0 -75.5 -16t-31.5 -38v-140h107v161q0 9 13.5 15t31.5 6h61q18 0 31.5 -6t13.5 -15v-321q0 -9 -13.5 -15.5t-31.5 -6.5h-106q-44 0 -75.5 -16t-31.5 -38v-312q0 -22 31.5 -38t75.5 -16h151q44 0 75.5 16t31.5 38v236h-107v-256q0 -9 -13.5 -15.5t-31.5 -6.5
h-61q-18 0 -31.5 6.5t-13.5 15.5v353q0 9 13.5 15t31.5 6h106q44 0 75.5 16t31.5 38v280q0 22 -31.5 38t-75.5 16h-151z" />
    <glyph glyph-name="three" unicode="3" 
d="M157 794q-44 0 -75.5 -15.5t-31.5 -37.5v-131h107v151q0 9 12.5 15t30.5 6h62q18 0 31 -6t13 -15v-321q0 -9 -13 -15.5t-31 -6.5h-105v-12h105q18 0 31 -6t13 -15v-353q0 -9 -13 -15.5t-31 -6.5h-62q-18 0 -30.5 6.5t-12.5 15.5v203h-107v-183q0 -22 31.5 -38t75.5 -16
h149q44 0 75.5 16t31.5 38v313q0 32 -59 47q59 15 59 48v281q0 22 -31.5 37.5t-75.5 15.5h-149z" />
    <glyph glyph-name="four" unicode="4" horiz-adv-x="510" 
d="M308 794v-467h-76q-31 0 -53 11t-22 27v429h-107v-425q0 -22 31.5 -37.5t75.5 -15.5h151v-306h-52v-11h204v11h-45v784h-107z" />
    <glyph glyph-name="five" unicode="5" 
d="M306 793q44 0 75.5 -16t31.5 -38v-207h-107v227q0 9 -12.5 16t-30.5 7h-62q-18 0 -31.5 -7t-13.5 -16v-321q0 -9 13.5 -15t31.5 -6h105q44 0 75.5 -16t31.5 -38v-313q0 -21 -31.5 -36.5t-75.5 -15.5h-150q-43 0 -74.5 15.5t-31.5 36.5v236h106v-256q0 -9 13.5 -15
t31.5 -6h62q18 0 30.5 6t12.5 15v353q0 9 -12.5 16t-30.5 7h-107q-44 0 -75 15.5t-31 37.5v280q0 22 31 38t75 16h150z" />
    <glyph glyph-name="six" unicode="6" 
d="M157 794q-44 0 -75.5 -16t-31.5 -38v-688q0 -22 31.5 -38t75.5 -16h150q44 0 75 16t31 38v302q0 26 -37.5 45t-90.5 19h-128v343q0 9 13 15t32 6h60q18 0 31.5 -6t13.5 -15v-161h106v140q0 22 -31 38t-75 16h-150zM254 406q22 0 37.5 -7.5t15.5 -18.5v-348
q0 -9 -13.5 -15.5t-31.5 -6.5h-60q-19 0 -32 6.5t-13 15.5v374h97z" />
    <glyph glyph-name="seven" unicode="7" horiz-adv-x="473" 
d="M149 794q-16 0 -33 -2.5t-36.5 -14.5t-19.5 -32v-233h107v270h146l-210 -772h-53v-12h203v12h-44l214 784h-274z" />
    <glyph glyph-name="eight" unicode="8" horiz-adv-x="464" 
d="M158 794q-45 0 -76.5 -16t-31.5 -38v-280q0 -33 60 -48q-60 -15 -60 -48v-312q0 -22 31.5 -38t76.5 -16h148q45 0 76.5 16t31.5 38v312q0 33 -60 48q60 15 60 48v280q0 22 -31.5 38t-76.5 16h-148zM263 782q18 0 30.5 -6.5t12.5 -15.5v-321q0 -9 -12.5 -15t-30.5 -6h-62
q-18 0 -30.5 6t-12.5 15v321q0 9 12.5 15.5t30.5 6.5h62zM270 406q18 0 30.5 -6t12.5 -15v-353q0 -9 -12.5 -15.5t-30.5 -6.5h-63q-18 0 -30.5 6.5t-12.5 15.5v353q0 9 12.5 15t30.5 6h63z" />
    <glyph glyph-name="nine" unicode="9" 
d="M308 -2q43 0 74 16t31 38v688q0 22 -31 38t-74 16h-151q-44 0 -75.5 -16t-31.5 -38v-302q0 -26 38 -45t90 -19h130v-342q0 -9 -13.5 -15.5t-31.5 -6.5h-63q-18 0 -30.5 6.5t-12.5 15.5v257h-107v-237q0 -22 31.5 -38t75.5 -16h151zM210 386q-22 0 -37.5 7.5t-15.5 18.5
v349q0 9 12.5 15t30.5 6h63q18 0 31.5 -6t13.5 -15v-375h-98z" />
    <glyph glyph-name="colon" unicode=":" horiz-adv-x="188" 
d="M50 363v-45h88v45h-88zM50 50v-44h88v44h-88z" />
    <glyph glyph-name="semicolon" unicode=";" horiz-adv-x="239" 
d="M100 363v-45h89v45h-89zM100 42v-45h27l-77 -30v-10l139 32v53h-89z" />
    <glyph glyph-name="less" unicode="&#x3c;" horiz-adv-x="315" 
d="M50 387l190 190l25 -25l-165 -165l165 -166l-25 -25l-190 190v1z" />
    <glyph glyph-name="equal" unicode="=" horiz-adv-x="419" 
d="M50 449h319v38h-319v-38zM50 286h319v38h-319v-38z" />
    <glyph glyph-name="greater" unicode="&#x3e;" horiz-adv-x="315" 
d="M265 387v-1l-190 -190l-25 25l165 166l-165 165l25 25z" />
    <glyph glyph-name="question" unicode="?" 
d="M155 783q-43 0 -74 -15.5t-31 -37.5v-140h105v160q0 9 13.5 15.5t31.5 6.5h61q19 0 32 -6.5t13 -15.5v-320q0 -9 -13 -16t-32 -7h-106q-43 0 -75 -16t-30 -37l22 -259h50l33 279q2 9 14.5 15.5t30.5 6.5h106q44 0 75.5 16t31.5 38v280q0 22 -31.5 37.5t-75.5 15.5h-151z
M55 42v-45h89v45h-89z" />
    <glyph glyph-name="at" unicode="@" horiz-adv-x="875" 
d="M438 786q160 0 273.5 -114t113.5 -274t-113.5 -274t-273.5 -114t-274 114t-114 274t114 274t274 114zM598 100q81 43 129.5 123t48.5 175q0 140 -99 239t-239 99t-239.5 -99t-99.5 -239t99.5 -239t239.5 -99q27 0 59 5v199h-121q-50 0 -85.5 18t-35.5 43v284
q0 21 29.5 36t70.5 15h142q41 0 71 -15t30 -36v-509zM497 275v354q0 8 -12.5 14t-30.5 6h-56q-17 0 -30 -6t-13 -14v-329q0 -9 15.5 -17t36.5 -8h90z" />
    <glyph glyph-name="A" unicode="A" 
d="M413 0h-107v408h-149v-408h-107v742q0 22 31.5 38t75.5 16h149q44 0 75.5 -16t31.5 -38v-742zM157 420h149v342q0 9 -12.5 15.5t-30.5 6.5h-63q-18 0 -30.5 -6.5t-12.5 -15.5v-342z" />
    <glyph glyph-name="B" unicode="B" horiz-adv-x="464" 
d="M50 796v-796h257q44 0 75.5 16t31.5 38v307q0 22 -31.5 37.5t-75.5 15.5q44 0 75.5 15.5t31.5 37.5v275q0 22 -31.5 38t-75.5 16h-257zM157 784h75q31 0 53 -11t22 -27v-288q0 -16 -22 -27t-53 -11h-75v364zM157 408h75q31 0 53 -11t22 -27v-320q0 -16 -22 -27t-53 -11
h-75v396z" />
    <glyph glyph-name="C" unicode="C" 
d="M157 796q-44 0 -75.5 -16t-31.5 -38v-688q0 -22 31.5 -38t75.5 -16h149q44 0 75.5 16t31.5 38v174h-107v-194q0 -9 -12.5 -15.5t-30.5 -6.5h-63q-18 0 -30.5 6.5t-12.5 15.5v728q0 9 12.5 15.5t30.5 6.5h63q18 0 30.5 -6.5t12.5 -15.5v-194h107v174q0 22 -31.5 38
t-75.5 16h-149z" />
    <glyph glyph-name="D" unicode="D" 
d="M50 795v-795h258q43 0 74 16t31 38v688q0 22 -31 37.5t-74 15.5h-258zM157 784h74q31 0 54 -11t23 -27v-697q0 -16 -23 -27t-54 -11h-74v773z" />
    <glyph glyph-name="E" unicode="E" 
d="M50 0v796h363v-12h-256v-364h255v-12h-255v-396h256v-12h-363z" />
    <glyph glyph-name="F" unicode="F" horiz-adv-x="464" 
d="M50 0v796h363v-12h-256v-364h255v-12h-255v-408h-107z" />
    <glyph glyph-name="G" unicode="G" 
d="M157 796q-44 0 -75.5 -16t-31.5 -38v-688q0 -22 31.5 -38t75.5 -16h151q43 0 74 16t31 38v366h-181v-12h76v-374q0 -9 -13.5 -15.5t-31.5 -6.5h-61q-19 0 -32 6.5t-13 15.5v728q0 9 13 15.5t32 6.5h61q18 0 31.5 -6.5t13.5 -15.5v-194h105v174q0 22 -31 38t-74 16h-151z
" />
    <glyph glyph-name="H" unicode="H" 
d="M50 796v-796h107v408h149v-408h107v796h-107v-376h-149v376h-107z" />
    <glyph glyph-name="I" unicode="I" horiz-adv-x="207" 
d="M50 796v-796h107v796h-107z" />
    <glyph glyph-name="J" unicode="J" 
d="M413 796h-107v-762q0 -9 -13 -15.5t-32 -6.5h-61q-18 0 -31.5 6.5t-13.5 15.5v176h-105v-156q0 -22 31 -38t74 -16h151q44 0 75.5 16t31.5 38v742z" />
    <glyph glyph-name="K" unicode="K" 
d="M413 796h-107v-338q0 -16 -22 -27t-53 -11h-74v376h-107v-796h107v408h74q31 0 53 -11t22 -27v-370h107v361q0 22 -31.5 37.5t-75.5 15.5q44 0 75.5 15.5t31.5 37.5v329z" />
    <glyph glyph-name="L" unicode="L" 
d="M50 795v-795h363v11h-256v784h-107z" />
    <glyph glyph-name="M" unicode="M" horiz-adv-x="581" 
d="M50 795v-796h22v684l126 -684h108l120 668v-668h105v796h-105v-1l-132 -732l-136 733h-108z" />
    <glyph glyph-name="N" unicode="N" 
d="M50 0h22v723l228 -723h113v795h-22v-743l-235 743h-106v-795z" />
    <glyph glyph-name="O" unicode="O" 
d="M156 795q-43 0 -74.5 -16t-31.5 -37v-689q0 -22 31.5 -38t74.5 -16h150q44 0 75.5 16t31.5 38v689q0 21 -31.5 37t-75.5 16h-150zM263 783q18 0 30.5 -6t12.5 -15v-729q0 -9 -12.5 -15.5t-30.5 -6.5h-63q-18 0 -31 6.5t-13 15.5v729q0 9 13 15t31 6h63z" />
    <glyph glyph-name="P" unicode="P" 
d="M50 795v-795h107v408h149q44 0 75.5 16t31.5 38v280q0 22 -31.5 37.5t-75.5 15.5h-256zM157 784h74q31 0 53 -11t22 -27v-289q0 -16 -22 -27t-53 -11h-74v365z" />
    <glyph glyph-name="Q" unicode="Q" 
d="M157 795q-44 0 -75.5 -15.5t-31.5 -37.5v-688q0 -22 31.5 -38t75.5 -16h127l84 -44h45l-86 45q37 4 61.5 19t24.5 34v688q0 22 -31 37.5t-74 15.5h-151zM232 50v-24l29 -15h-59q-19 0 -32 7t-13 16v728q0 9 13 15.5t32 6.5h61q18 0 31.5 -6.5t13.5 -15.5v-728
q0 -10 -13 -16z" />
    <glyph glyph-name="R" unicode="R" 
d="M50 795v-795h105v408h75q32 0 54 -11t22 -27v-370h107v360q0 18 -20.5 32t-53.5 19q33 5 53.5 19t20.5 32v280q0 22 -31.5 37.5t-75.5 15.5h-256zM155 784h75q32 0 54 -11t22 -27v-289q0 -16 -22 -27t-54 -11h-75v365z" />
    <glyph glyph-name="S" unicode="S" 
d="M155 795q-42 0 -73.5 -16t-31.5 -37v-281q0 -22 31 -37.5t74 -15.5h106q19 0 32 -6.5t13 -15.5v-353q0 -9 -13 -15.5t-32 -6.5h-61q-18 0 -31.5 6.5t-13.5 15.5v172h-105v-152q0 -22 31 -38t74 -16h151q44 0 75.5 16t31.5 38v313q0 22 -31.5 37.5t-75.5 15.5h-106
q-18 0 -31.5 6.5t-13.5 15.5v321q0 9 13.5 15t31.5 6h61q19 0 32 -6t13 -15v-195h107v175q0 21 -31.5 37t-75.5 16h-151z" />
    <glyph glyph-name="T" unicode="T" horiz-adv-x="535" 
d="M50 795v-11h178v-784h107v784h150v11h-435z" />
    <glyph glyph-name="U" unicode="U" 
d="M413 795h-107v-762q0 -9 -12.5 -15.5t-30.5 -6.5h-63q-18 0 -30.5 6.5t-12.5 15.5v762h-107v-742q0 -22 31.5 -38t75.5 -16h149q44 0 75.5 16t31.5 38v742z" />
    <glyph glyph-name="V" unicode="V" horiz-adv-x="485" 
d="M50 795l126 -795h107l152 795h-22l-139 -730l-117 730h-107z" />
    <glyph glyph-name="W" unicode="W" horiz-adv-x="775" 
d="M50 794l149 -795h105v3l71 595l96 -598h107v2l147 793h-22l-136 -732l-119 732h-105l17 -116l-68 -602l-135 718h-107z" />
    <glyph glyph-name="X" unicode="X" horiz-adv-x="535" 
d="M60 795l168 -421l-178 -374h24l165 348l139 -348h107l-189 471l154 324h-22l-141 -298l-120 298h-107z" />
    <glyph glyph-name="Y" unicode="Y" horiz-adv-x="495" 
d="M300 438l145 357h-22l-135 -326l-128 326h-110l142 -358v-437h108v438z" />
    <glyph glyph-name="Z" unicode="Z" horiz-adv-x="532" 
d="M162 10l315 773l5 11h-363v-11h253l-322 -784h365v11h-253z" />
    <glyph glyph-name="bracketleft" unicode="[" horiz-adv-x="356" 
d="M50 786v-784h256v12h-149v761h149v11h-256z" />
    <glyph glyph-name="backslash" unicode="\" 
d="M157 792l256 -795h-107l-256 795h107z" />
    <glyph glyph-name="bracketright" unicode="]" horiz-adv-x="358" 
d="M308 786v-784h-258v12h151v761h-151v11h258z" />
    <glyph glyph-name="asciicircum" unicode="^" horiz-adv-x="416" 
d="M208 782l158 -157l-21 -20l-138 136l-136 -136l-21 20z" />
    <glyph glyph-name="underscore" unicode="_" horiz-adv-x="689" 
d="M50 17v-18h589v18h-589z" />
    <glyph glyph-name="a" unicode="a" 
d="M413 0h-107v408h-149v-408h-107v742q0 22 31.5 38t75.5 16h149q44 0 75.5 -16t31.5 -38v-742zM157 420h149v342q0 9 -12.5 15.5t-30.5 6.5h-63q-18 0 -30.5 -6.5t-12.5 -15.5v-342z" />
    <glyph glyph-name="b" unicode="b" horiz-adv-x="464" 
d="M50 796v-796h257q44 0 75.5 16t31.5 38v307q0 22 -31.5 37.5t-75.5 15.5q44 0 75.5 15.5t31.5 37.5v275q0 22 -31.5 38t-75.5 16h-257zM157 784h75q31 0 53 -11t22 -27v-288q0 -16 -22 -27t-53 -11h-75v364zM157 408h75q31 0 53 -11t22 -27v-320q0 -16 -22 -27t-53 -11
h-75v396z" />
    <glyph glyph-name="c" unicode="c" 
d="M157 796q-44 0 -75.5 -16t-31.5 -38v-688q0 -22 31.5 -38t75.5 -16h149q44 0 75.5 16t31.5 38v174h-107v-194q0 -9 -12.5 -15.5t-30.5 -6.5h-63q-18 0 -30.5 6.5t-12.5 15.5v728q0 9 12.5 15.5t30.5 6.5h63q18 0 30.5 -6.5t12.5 -15.5v-194h107v174q0 22 -31.5 38
t-75.5 16h-149z" />
    <glyph glyph-name="d" unicode="d" 
d="M50 795v-795h258q43 0 74 16t31 38v688q0 22 -31 37.5t-74 15.5h-258zM157 784h74q31 0 54 -11t23 -27v-697q0 -16 -23 -27t-54 -11h-74v773z" />
    <glyph glyph-name="e" unicode="e" 
d="M50 0v796h363v-12h-256v-364h255v-12h-255v-396h256v-12h-363z" />
    <glyph glyph-name="f" unicode="f" 
d="M50 0v796h363v-12h-256v-364h255v-12h-255v-408h-107z" />
    <glyph glyph-name="g" unicode="g" 
d="M157 796q-44 0 -75.5 -16t-31.5 -38v-688q0 -22 31.5 -38t75.5 -16h151q43 0 74 16t31 38v366h-181v-12h76v-374q0 -9 -13.5 -15.5t-31.5 -6.5h-61q-19 0 -32 6.5t-13 15.5v728q0 9 13 15.5t32 6.5h61q18 0 31.5 -6.5t13.5 -15.5v-194h105v174q0 22 -31 38t-74 16h-151z
" />
    <glyph glyph-name="h" unicode="h" 
d="M50 796v-796h107v408h149v-408h107v796h-107v-376h-149v376h-107z" />
    <glyph glyph-name="i" unicode="i" horiz-adv-x="207" 
d="M50 796v-796h107v796h-107z" />
    <glyph glyph-name="j" unicode="j" 
d="M413 796h-107v-762q0 -9 -13 -15.5t-32 -6.5h-61q-18 0 -31.5 6.5t-13.5 15.5v176h-105v-156q0 -22 31 -38t74 -16h151q44 0 75.5 16t31.5 38v742z" />
    <glyph glyph-name="k" unicode="k" 
d="M413 796h-107v-338q0 -16 -22 -27t-53 -11h-74v376h-107v-796h107v408h74q31 0 53 -11t22 -27v-370h107v361q0 22 -31.5 37.5t-75.5 15.5q44 0 75.5 15.5t31.5 37.5v329z" />
    <glyph glyph-name="l" unicode="l" 
d="M50 795v-795h363v11h-256v784h-107z" />
    <glyph glyph-name="m" unicode="m" horiz-adv-x="581" 
d="M50 795v-796h22v684l126 -684h108l120 668v-668h105v796h-105v-1l-132 -732l-136 733h-108z" />
    <glyph glyph-name="n" unicode="n" 
d="M50 0h22v723l228 -723h113v795h-22v-743l-235 743h-106v-795z" />
    <glyph glyph-name="o" unicode="o" 
d="M156 795q-43 0 -74.5 -16t-31.5 -37v-689q0 -22 31.5 -38t74.5 -16h150q44 0 75.5 16t31.5 38v689q0 21 -31.5 37t-75.5 16h-150zM263 783q18 0 30.5 -6t12.5 -15v-729q0 -9 -12.5 -15.5t-30.5 -6.5h-63q-18 0 -31 6.5t-13 15.5v729q0 9 13 15t31 6h63z" />
    <glyph glyph-name="p" unicode="p" 
d="M50 795v-795h107v408h149q44 0 75.5 16t31.5 38v280q0 22 -31.5 37.5t-75.5 15.5h-256zM157 784h74q31 0 53 -11t22 -27v-289q0 -16 -22 -27t-53 -11h-74v365z" />
    <glyph glyph-name="q" unicode="q" 
d="M157 795q-44 0 -75.5 -15.5t-31.5 -37.5v-688q0 -22 31.5 -38t75.5 -16h127l84 -44h45l-86 45q37 4 61.5 19t24.5 34v688q0 22 -31 37.5t-74 15.5h-151zM232 50v-24l29 -15h-59q-19 0 -32 7t-13 16v728q0 9 13 15.5t32 6.5h61q18 0 31.5 -6.5t13.5 -15.5v-728
q0 -10 -13 -16z" />
    <glyph glyph-name="r" unicode="r" 
d="M50 795v-795h105v408h75q32 0 54 -11t22 -27v-370h107v360q0 18 -20.5 32t-53.5 19q33 5 53.5 19t20.5 32v280q0 22 -31.5 37.5t-75.5 15.5h-256zM155 784h75q32 0 54 -11t22 -27v-289q0 -16 -22 -27t-54 -11h-75v365z" />
    <glyph glyph-name="s" unicode="s" 
d="M155 795q-42 0 -73.5 -16t-31.5 -37v-281q0 -22 31 -37.5t74 -15.5h106q19 0 32 -6.5t13 -15.5v-353q0 -9 -13 -15.5t-32 -6.5h-61q-18 0 -31.5 6.5t-13.5 15.5v172h-105v-152q0 -22 31 -38t74 -16h151q44 0 75.5 16t31.5 38v313q0 22 -31.5 37.5t-75.5 15.5h-106
q-18 0 -31.5 6.5t-13.5 15.5v321q0 9 13.5 15t31.5 6h61q19 0 32 -6t13 -15v-195h107v175q0 21 -31.5 37t-75.5 16h-151z" />
    <glyph glyph-name="t" unicode="t" horiz-adv-x="535" 
d="M50 795v-11h178v-784h107v784h150v11h-435z" />
    <glyph glyph-name="u" unicode="u" 
d="M413 795h-107v-762q0 -9 -12.5 -15.5t-30.5 -6.5h-63q-18 0 -30.5 6.5t-12.5 15.5v762h-107v-742q0 -22 31.5 -38t75.5 -16h149q44 0 75.5 16t31.5 38v742z" />
    <glyph glyph-name="v" unicode="v" horiz-adv-x="485" 
d="M50 795l126 -795h107l152 795h-22l-139 -730l-117 730h-107z" />
    <glyph glyph-name="w" unicode="w" horiz-adv-x="775" 
d="M50 794l149 -795h105v3l71 595l96 -598h107v2l147 793h-22l-136 -732l-119 732h-105l17 -116l-68 -602l-135 718h-107z" />
    <glyph glyph-name="x" unicode="x" horiz-adv-x="535" 
d="M60 795l168 -421l-178 -374h24l165 348l139 -348h107l-189 471l154 324h-22l-141 -298l-120 298h-107z" />
    <glyph glyph-name="y" unicode="y" horiz-adv-x="495" 
d="M300 438l145 357h-22l-135 -326l-128 326h-110l142 -358v-437h108v438z" />
    <glyph glyph-name="z" unicode="z" horiz-adv-x="532" 
d="M162 10l315 773l5 11h-363v-11h253l-322 -784h365v11h-253z" />
    <glyph glyph-name="braceleft" unicode="{" horiz-adv-x="508" 
d="M308 750q0 12 18 21.5t44 9.5h88v11h-150q-45 0 -76.5 -16t-31.5 -38v-284q0 -16 -22 -27t-53 -11h-75v-11h75q31 0 53 -11t22 -27v-318q0 -22 31.5 -37t76.5 -15h150v11h-88q-26 0 -44 9t-18 21v319q0 22 -31.5 37.5t-76.5 15.5q45 0 76.5 16t31.5 38v286z" />
    <glyph glyph-name="bar" unicode="|" horiz-adv-x="207" 
d="M50 792v-795h107v795h-107z" />
    <glyph glyph-name="braceright" unicode="}" horiz-adv-x="506" 
d="M200 750q0 12 -18.5 21.5t-43.5 9.5h-88v11h150q45 0 76.5 -16t31.5 -38v-284q0 -16 22 -27t53 -11h73v-11h-73q-31 0 -53 -11t-22 -27v-318q0 -22 -31.5 -37t-76.5 -15h-150v11h88q25 0 43.5 9t18.5 21v319q0 22 31.5 37.5t76.5 15.5q-45 0 -76.5 16t-31.5 38v286z" />
    <glyph glyph-name="asciitilde" unicode="~" horiz-adv-x="612" 
d="M50 468v-62q0 -19 10 -32t24 -13h113v45h-125q-14 0 -14 19v25q0 7 4 12.5t10 5.5h206q5 0 9.5 -5.5t4.5 -12.5v-44q0 -19 10 -32t24 -13h201q14 0 24.5 13t10.5 32v62q0 18 -10.5 31t-24.5 13h-98v-44h111q6 0 10 -5.5t4 -12.5v-25q0 -19 -14 -19h-227q-14 0 -14 19v43
q0 18 -10 31t-24 13h-181q-14 0 -24 -13t-10 -31z" />
    <glyph glyph-name="exclamdown" unicode="&#xa1;" horiz-adv-x="205" 
d="M147 730v45h-89v-45h89zM155 -11l-30 677h-53l-22 -677h105z" />
    <glyph glyph-name="copyright" unicode="&#xa9;" horiz-adv-x="875" 
d="M438 10q-160 0 -274 114t-114 274t114 274t274 114t273.5 -114t113.5 -274t-113.5 -274t-273.5 -114zM438 60q27 0 59 5l101 35q81 43 129.5 123t48.5 175q0 140 -99 239t-239 99t-239.5 -99t-99.5 -239t99.5 -239t239.5 -99zM375 174q-36 0 -61 9t-25 21v380q0 12 25 21
t61 9h119q36 0 61 -9t25 -21v-96h-86v108q0 12 -34 12h-51q-34 0 -34 -12v-404q0 -12 34 -12h51q34 0 34 12v108h86v-96q0 -12 -25 -21t-61 -9h-119z" />
    <glyph glyph-name="registered" unicode="&#xae;" horiz-adv-x="875" 
d="M438 10q-160 0 -274 114t-114 274t114 274t274 114t273.5 -114t113.5 -274t-113.5 -274t-273.5 -114zM438 60q27 0 59 5l101 35q81 43 129.5 123t48.5 175q0 140 -99 239t-239 99t-239.5 -99t-99.5 -239t99.5 -239t239.5 -99zM276 610v-427h92v219h65q28 0 47.5 -6
t19.5 -14v-199h93v193q0 21 -65 28q29 2 47 9.5t18 17.5v150q0 12 -27.5 20.5t-65.5 8.5h-224zM368 604h65q28 0 47.5 -6t19.5 -14v-156q0 -8 -19.5 -14t-47.5 -6h-65v196z" />
    <glyph glyph-name="questiondown" unicode="&#xbf;" horiz-adv-x="465" 
d="M409 739v44h-90v-44h90zM308 -3q44 0 75.5 15.5t31.5 37.5v140h-107v-160q0 -9 -13 -15.5t-32 -6.5h-61q-18 0 -31.5 6.5t-13.5 15.5v320q0 10 13.5 16.5t31.5 6.5h106q45 0 76.5 15.5t30.5 37.5l-22 259h-50l-35 -279q-4 -22 -45 -22h-106q-43 0 -75 -16t-32 -38v-280
q0 -22 32 -37.5t75 -15.5h151z" />
    <glyph glyph-name="multiply" unicode="&#xd7;" horiz-adv-x="352" 
d="M50 487l98 -99l-94 -94l28 -28l95 94l99 -99l26 27l-99 99l93 93l-28 28l-93 -93l-98 98z" />
    <glyph glyph-name="divide" unicode="&#xf7;" horiz-adv-x="419" 
d="M163 495v-45h89v45h-89zM50 368h319v38h-319v-38zM163 318v-45h89v45h-89z" />
    <glyph glyph-name="quoteleft" unicode="&#x2018;" horiz-adv-x="239" 
d="M139 774v45h-27l77 30v10l-139 -33v-52h89z" />
    <glyph glyph-name="quoteright" unicode="&#x2019;" horiz-adv-x="239" 
d="M99 859v-45h27l-76 -29v-11l139 32v53h-90z" />
    <glyph glyph-name="quotesinglbase" unicode="&#x201a;" horiz-adv-x="239" 
d="M100 37v-44h27l-77 -31v-9l139 32v52h-89z" />
    <glyph glyph-name="quotedblleft" unicode="&#x201c;" horiz-adv-x="424" 
d="M139 774v45h-27l77 30v10l-139 -33v-52h89zM325 774v45h-27l76 30v10l-139 -33v-52h90z" />
    <glyph glyph-name="quotedblright" unicode="&#x201d;" horiz-adv-x="424" 
d="M101 859v-45h27l-78 -29v-11l139 32v53h-88zM286 859v-45h28l-79 -29v-11l139 32v53h-88z" />
    <glyph glyph-name="quotedblbase" unicode="&#x201e;" horiz-adv-x="387" 
d="M100 37v-44h27l-77 -31v-9l139 32v52h-89zM249 37v-44h27l-79 -31v-10l140 33v52h-88z" />
    <glyph glyph-name="trademark" unicode="&#x2122;" horiz-adv-x="573" 
d="M50 794v-5h87v-387h53v387h74v5h-214zM286 794v-392h11v337l62 -337h53l59 329v-329h52v392h-52l-65 -361l-67 361h-53z" />
    <glyph glyph-name="minus" unicode="&#x2212;" horiz-adv-x="419" 
d="M50 368h319v38h-319v-38z" />
    <glyph glyph-name="_FSHallmark" horiz-adv-x="732" 
d="M52 675h630v-74h-630v74zM600 460q0 9 -5 17q-4 5 -14 13q-12 6 -18 8q-14 2 -18 2q-19 0 -36 -9q-16 -10 -16 -22q0 -23 14 -31q16 -9 34 -13l27 -6l23 -6q13 -4 22 -5q7 -1 19 -5q3 -2 8 -4.5t8 -3.5q15 -9 24 -21q8 -14 9 -33q1 -21 -8 -38q-20 -32 -55 -44
q-38 -12 -72 -12q-27 0 -51 7t-44 21t-32 36q-12 21 -12 49l73 -1q0 -3 3 -11q2 -12 11 -20q9 -9 19 -13q13 -7 36 -7q25 0 40 9q15 7 15 19q0 21 -60 36q-56 14 -92 33q-38 20 -38 63q0 36 25 57q24 20 55 30q24 6 52 6q36 0 72 -14q33 -14 50 -50q8 -21 8 -37h-76z
M135 247h-83v313h265v-71h-182v-70h151v-70h-151v-102zM310 285q0 16 11 27q10 10 27 10q16 0 30 -11q12 -11 12 -26t-12 -26q-13 -10 -30 -10q-15 0 -26 11q-12 10 -12 25zM50 208h631v-75h-631v75z" />
    <glyph glyph-name="_Fontastica" horiz-adv-x="629" 
d="M138 186h-87q-1 1 -1 4v510h382v-78h-294v-210h295v-79h-295v-147zM193 554h296v146h87v-513h-383v78h296v210h-296v79zM489 136q-5 -3 -5 -8q0 -7 4 -11q3 -4 9 -4q7 0 14 4l4 -4q-6 -9 -18 -9q-8 0 -16 5q-6 8 -7 16q-1 10 6 17q8 8 17 8q10 0 18 -8l-4 -6l-2 2
q-2 1 -3 2t-7 1h-2q-2 -1 -5 -3zM51 149h32v-8h-21v-12h20v-7h-20v-17h-11v44zM123 149q15 0 22 -12q6 -8 2 -20q-5 -12 -19 -13l-6 -2q-6 0 -9 3q-14 6 -14 19q0 11 7 18q6 7 17 7zM208 105h-3q-1 -1 -3 -1t-7 5l-4 6q-1 1 -2.5 3t-1.5 3l-9 11v-27h-10v44h8q3 -1 5 -6
q7 -7 10 -11q7 -12 8 -13v30h9v-44zM227 149h37v-8h-14v-36h-9v36h-14v8zM364 128q9 0 9 -10q1 -9 -8 -13q-1 -1 -8 -1q-14 0 -21 7q1 1 1 2l1 1q0 2 1 3l14 -4h6q3 3 3 2q0 8 -10 9q-1 0 -2 1t-4 1q-7 1 -7 10q-1 7 6 11q6 2 10 2q11 0 18 -4l-4 -8q-1 1 -3 1q-1 0 -2 1
t-3 1q-1 0 -2 1h-6q-3 0 -3 -3q-2 -2 3 -6q3 -1 6.5 -2.5t4.5 -1.5zM388 149h38v-8h-14v-36h-10v36h-14v8zM444 149h11v-44h-11v44zM560 149l9 -21q1 -4 5 -12q1 -6 5 -11h-10l-4 9h-21l-4 -9h-10q11 21 18 44h12zM302 147q2 -5 5 -10t5 -10q0 -1 1.5 -5t2.5 -6t2.5 -6
t1.5 -5h-10q-1 1 -1 4q0 1 -1 2q0 1 -1 3h-20q-1 -1 -1 -5q-1 -1 -1 -2l-2 -2h-9l18 42h10zM136 127q0 5 -3 10q-4 4 -11 4q-1 -1 -3 -1q-4 -1 -8 -7t-1 -11q3 -10 13 -10q3 0 4 1q9 1 9 13v1zM304 122l-1 2l-1 2l-1 2l-1 2q-1 1 -1 4q-1 0 -1 2t-1 2l-8 -16h15zM561 122
q-1 1 -1 4l-1 2l-1 2l-1 2q-1 1 -1 2l-1 2l-1 2l-7 -16h14z" />
    </font>
</defs>
</svg>
