<svg xmlns="http://www.w3.org/2000/svg">
<defs>
<font id="Lumen-Italic" horiz-adv-x="463" >
  <font-face 
    font-family="Lumen"
    font-weight="400"
    font-style="italic"
    font-stretch="normal"
    units-per-em="1000"
    panose-1="0 0 5 0 0 0 0 0 0 0"
    ascent="800"
    descent="-200"
    x-height="794"
    cap-height="796"
    bbox="43 -48 893.187 928"
    underline-thickness="50"
    underline-position="-200"
    unicode-range="U+0020-2212"
  />
<missing-glyph horiz-adv-x="577" 
d="M50 789h477v-784h-477v784zM491 48v693h-405v-693h405zM189 186h-40l118 254l-118 254h40l101 -218l100 218h39l-116 -254l116 -254h-39l-100 219zM408 116q-2 -1 -2 -6q0 -4 2 -7q1 -2 6 -2q6 0 9 2l2 -2q-3 -7 -11 -7q-2 0 -6 2l-5 2q-3 2 -4 10q-2 8 3 12q7 5 12 5
q6 0 11 -5l-2 -4l-2 1q-1 0 -1 1q0 2 -5 2h-1q-4 -2 -6 -4zM125 107v-12h-8v29h22v-4h-14v-8h13v-5h-13zM158 95q-9 5 -9 13q0 9 5 12q3 4 10 4q11 0 15 -7q5 -7 1 -14q-2 -7 -11 -9l-5 -1q-2 0 -6 2zM215 105v19h6v-29h-1q-1 -1 -3 -1l-1 2q-2 1 -3 2q-3 3 -4 3
q0 1 -0.5 2.5t-1.5 2.5q-2 3 -6 7v-18h-7v29h6q1 0 2 -1.5t2 -1.5q0 -1 2 -3.5t3 -4.5q4 -4 6 -8zM235 120v4h24v-4h-9v-25h-6v25h-9zM325 110q6 0 6 -7q2 -5 -6 -8q0 -1 -5 -1q-4 0 -14 5q2 1 2 2t1 2l9 -2h3h3q0 5 -7 7q0 -1 -1 0q0 1 -3 1q-4 1 -4 7q-1 5 3 7q3 1 7 1
q9 0 12 -2l-3 -5h-2h-1l-1 1q-1 0 -3 2h-3q-2 0 -2 -3q0 -2 2 -4q6 0 7 -3zM341 120v4h26v-4h-10v-25h-7v25h-9zM378 95v29h7v-29h-7zM445 101l-3 -6h-6q9 18 11 29h8l6 -14l4 -8l3 -7h-7l-2 6h-14zM290 110l4 -8q0 -3 2 -7h-7v3l-1 1q0 1 -1 2h-13q-1 0 -1 -3v-1
q-1 0 -2 -2h-6l13 28h6q0 -3 3 -6t3 -7zM157 114q-1 -1 -1.5 -3.5t0.5 -3.5q1 -7 8 -7q3 0 4 1q6 0 6 8v1q0 5 -3 7q-3 3 -7 3q0 -2 -2 -2q-2 -1 -5 -4zM284 107v2l-2 3v3l-1 1l-1 1l-5 -10h9zM451 117l-5 -10h9v2q0 3 -1 3v2q0 1 -1 1t-1 1t-1 1z" />
    <glyph glyph-name=".notdef" horiz-adv-x="577" 
d="M50 789h477v-784h-477v784zM491 48v693h-405v-693h405zM189 186h-40l118 254l-118 254h40l101 -218l100 218h39l-116 -254l116 -254h-39l-100 219zM408 116q-2 -1 -2 -6q0 -4 2 -7q1 -2 6 -2q6 0 9 2l2 -2q-3 -7 -11 -7q-2 0 -6 2l-5 2q-3 2 -4 10q-2 8 3 12q7 5 12 5
q6 0 11 -5l-2 -4l-2 1q-1 0 -1 1q0 2 -5 2h-1q-4 -2 -6 -4zM125 107v-12h-8v29h22v-4h-14v-8h13v-5h-13zM158 95q-9 5 -9 13q0 9 5 12q3 4 10 4q11 0 15 -7q5 -7 1 -14q-2 -7 -11 -9l-5 -1q-2 0 -6 2zM215 105v19h6v-29h-1q-1 -1 -3 -1l-1 2q-2 1 -3 2q-3 3 -4 3
q0 1 -0.5 2.5t-1.5 2.5q-2 3 -6 7v-18h-7v29h6q1 0 2 -1.5t2 -1.5q0 -1 2 -3.5t3 -4.5q4 -4 6 -8zM235 120v4h24v-4h-9v-25h-6v25h-9zM325 110q6 0 6 -7q2 -5 -6 -8q0 -1 -5 -1q-4 0 -14 5q2 1 2 2t1 2l9 -2h3h3q0 5 -7 7q0 -1 -1 0q0 1 -3 1q-4 1 -4 7q-1 5 3 7q3 1 7 1
q9 0 12 -2l-3 -5h-2h-1l-1 1q-1 0 -3 2h-3q-2 0 -2 -3q0 -2 2 -4q6 0 7 -3zM341 120v4h26v-4h-10v-25h-7v25h-9zM378 95v29h7v-29h-7zM445 101l-3 -6h-6q9 18 11 29h8l6 -14l4 -8l3 -7h-7l-2 6h-14zM290 110l4 -8q0 -3 2 -7h-7v3l-1 1q0 1 -1 2h-13q-1 0 -1 -3v-1
q-1 0 -2 -2h-6l13 28h6q0 -3 3 -6t3 -7zM157 114q-1 -1 -1.5 -3.5t0.5 -3.5q1 -7 8 -7q3 0 4 1q6 0 6 8v1q0 5 -3 7q-3 3 -7 3q0 -2 -2 -2q-2 -1 -5 -4zM284 107v2l-2 3v3l-1 1l-1 1l-5 -10h9zM451 117l-5 -10h9v2q0 3 -1 3v2q0 1 -1 1t-1 1t-1 1z" />
    <glyph glyph-name=".null" horiz-adv-x="0" 
 />
    <glyph glyph-name="nonmarkingreturn" horiz-adv-x="333" 
 />
    <glyph glyph-name="space" unicode=" " horiz-adv-x="400" 
 />
    <glyph glyph-name="exclam" unicode="!" horiz-adv-x="205" 
d="M173 775l-86 -678h53l138 678h-105zM63 33l-7 -44h89l7 44h-89z" />
    <glyph glyph-name="quotedbl" unicode="&#x22;" horiz-adv-x="424" 
d="M237 859l-4 -26l-3 -19h27l-83 -29l-1 -11l144 32l4 27l4 26h-88zM422 859l-4 -26l-3 -19h28l-84 -29l-1 -11l144 32l4 27l4 26h-88z" />
    <glyph glyph-name="numbersign" unicode="#" horiz-adv-x="729" 
d="M358 792l-100 -301h-94l-6 -11h96l-57 -171h-94l-6 -12h96l-99 -300h107l100 300h187l-100 -300h107l100 300h98l3 12h-97l57 171h98l3 11h-97l99 301h-105l-100 -301h-189l100 301h-107zM362 480h187l-58 -171h-187z" />
    <glyph glyph-name="dollar" unicode="$" horiz-adv-x="464" 
d="M348 826l-6 -34h-59q-45 0 -79 -15q-34 -16 -37 -38l-44 -281q-4 -21 25 -37q28 -16 74 -16h105q20 0 30 -7q11 -6 10 -15l-56 -353q-1 -8 -15 -15q-11 -7 -32 -7h-62q-19 0 -30 7q-10 7 -9 15l27 172h-108l-24 -152q-3 -21 25 -37t75 -16h59l-6 -33h22l6 33h67
q45 0 78 16q35 18 38 37l49 313q4 20 -25 38q-30 15 -74 15h-105q-20 0 -30 7t-10 15l51 321q1 9 15 15q11 7 32 7h62q19 0 30 -7q10 -6 9 -15l-31 -194h108l28 174q3 20 -26 38q-29 15 -74 15h-67l6 34h-22z" />
    <glyph glyph-name="percent" unicode="%" horiz-adv-x="407" 
d="M445 796l-382 -796h28l379 796h-25zM163 715l-7 -45h89l7 45h-89zM289 126l-7 -45h88l7 45h-88z" />
    <glyph glyph-name="ampersand" unicode="&#x26;" horiz-adv-x="497" 
d="M282 795q-44 0 -77.5 -15.5t-36.5 -37.5l-45 -280q-2 -16 12 -29t40 -19q-28 -7 -46.5 -20t-20.5 -28l-49 -312q-4 -22 24.5 -38t72.5 -16h150q44 0 78 16t38 38l38 244l18 110h34l1 11h-34l7 41h-107l-7 -41h-106q-18 0 -30 6.5t-10 15.5l51 321q2 9 15.5 15.5t31.5 6.5
h61q19 0 31.5 -6.5t10.5 -15.5l-14 -84h107l11 64q3 22 -26 37.5t-73 15.5h-150zM371 408l-18 -110l-12 -77l-30 -188q-2 -9 -15.5 -15.5t-32.5 -6.5h-61q-18 0 -30 6.5t-11 15.5l56 353q1 9 15.5 15.5t32.5 6.5h106z" />
    <glyph glyph-name="quotesingle" unicode="'" horiz-adv-x="239" 
d="M235 859l-4 -26l-3 -19h27l-81 -29l-1 -11l144 32l4 27l4 26h-90z" />
    <glyph glyph-name="parenleft" unicode="(" horiz-adv-x="358" 
d="M282 792q-44 0 -77.5 -15.5t-37.5 -38.5l-109 -688q-4 -22 25.5 -37.5t73.5 -15.5h151l1 11h-88q-26 0 -43 9t-15 22l113 711q2 12 22.5 21.5t45.5 9.5h88l1 11h-151z" />
    <glyph glyph-name="parenright" unicode=")" horiz-adv-x="356" 
d="M324 792q44 0 73.5 -16t25.5 -38l-109 -688q-4 -22 -37.5 -37.5t-77.5 -15.5h-149l1 11h86q27 0 46.5 9t21.5 22l113 711q2 12 -15 21.5t-43 9.5h-86l1 11h149z" />
    <glyph glyph-name="asterisk" unicode="*" horiz-adv-x="508" 
d="M405 837l32 91h-70l-3 -90l-138 52l-40 -31l156 -40l-168 -37l30 -31l154 50l-25 -88h70l-2 89l141 -51l40 31l-156 37l168 40l-30 31z" />
    <glyph glyph-name="plus" unicode="+" horiz-adv-x="419" 
d="M108 368h139l-21 -133h40l21 133h140l6 38h-140l21 132h-40l-21 -132h-139z" />
    <glyph glyph-name="comma" unicode="," horiz-adv-x="239" 
d="M106 37l-4 -26l-3 -18h27l-82 -31l-1 -9l144 32l8 52h-89z" />
    <glyph glyph-name="hyphen" unicode="-" horiz-adv-x="418" 
d="M109 372h318l3 20h-318z" />
    <glyph glyph-name="period" unicode="." horiz-adv-x="188" 
d="M57 46l-7 -45h88l7 45h-88z" />
    <glyph glyph-name="slash" unicode="/" 
d="M431 792l-381 -795h107l381 795h-107z" />
    <glyph glyph-name="zero" unicode="0" horiz-adv-x="465" 
d="M283 794q-43 0 -77.5 -16t-38.5 -38l-109 -688q-4 -22 26 -38t73 -16h151q44 0 77.5 15.5t37.5 38.5l109 688q4 22 -25 38t-73 16h-151zM387 782q19 0 31 -6t11 -15l-116 -729q-2 -9 -15.5 -15.5t-32.5 -6.5h-61q-18 0 -30.5 6.5t-11.5 15.5l116 729q1 9 15.5 15t32.5 6
h61z" />
    <glyph glyph-name="one" unicode="1" horiz-adv-x="308" 
d="M176 794l-2 -12h53l-122 -772h-48l-2 -12h203l2 12h-48l124 784h-160z" />
    <glyph glyph-name="two" unicode="2" horiz-adv-x="465" 
d="M283 794q-44 0 -78 -16t-38 -38l-22 -140h107l26 161q1 9 15.5 15t32.5 6h61q18 0 30.5 -6t11.5 -15l-51 -321q-1 -9 -16 -15.5t-33 -6.5h-106q-44 0 -78 -16t-37 -38l-50 -312q-4 -22 25.5 -38t73.5 -16h151q44 0 77.5 15.5t37.5 38.5l38 236h-107l-41 -256
q-1 -9 -15.5 -15.5t-32.5 -6.5h-61q-18 0 -30.5 6.5t-11.5 15.5l56 353q1 9 15.5 15t32.5 6h106q44 0 78 16t38 38l44 280q4 22 -25 38t-73 16h-151z" />
    <glyph glyph-name="three" unicode="3" 
d="M283 794q-44 0 -78 -15.5t-38 -37.5l-20 -131h107l24 151q1 9 14.5 15t31.5 6h62q18 0 30 -6t11 -15l-51 -321q-1 -9 -15.5 -15.5t-32.5 -6.5h-105l-2 -12h105q18 0 30 -6t11 -15l-56 -353q-2 -9 -15.5 -15.5t-31.5 -6.5h-62q-18 0 -30 6.5t-10 15.5l32 203h-107
l-29 -183q-4 -22 25.5 -38t73.5 -16h149q44 0 77.5 15.5t37.5 38.5l50 313q2 15 -12 27.5t-40 19.5q62 15 67 48l44 281q4 22 -25 37.5t-73 15.5h-149z" />
    <glyph glyph-name="four" unicode="4" horiz-adv-x="510" 
d="M434 794l-74 -467h-76q-31 0 -51.5 11t-17.5 27l11 68l55 350l2 11h-107l-68 -425q-3 -22 26 -37.5t73 -15.5h151l-48 -306h-52l-2 -11h204l2 11h-45l48 306l2 11l74 467h-107z" />
    <glyph glyph-name="five" unicode="5" 
d="M432 793q44 0 73 -16t25 -38l-33 -207h-107l36 227q2 9 -9.5 16t-29.5 7h-62q-18 0 -32.5 -7t-16.5 -16l-51 -321q-1 -9 11.5 -15t30.5 -6h105q44 0 73 -16t25 -38l-49 -313q-4 -21 -37.5 -36.5t-77.5 -15.5h-150q-43 0 -72.5 15.5t-25.5 36.5l37 236h106l-40 -256
q-1 -9 11 -15t30 -6h62q18 0 32 6t15 15l56 353q2 9 -10 16t-30 7h-107q-44 0 -72.5 15.5t-24.5 37.5l44 280q4 22 37.5 38t77.5 16h150z" />
    <glyph glyph-name="six" unicode="6" 
d="M283 794q-44 0 -78 -16t-38 -38l-51 -322l-2 -12l-56 -354q-4 -22 25.5 -38t73.5 -16h150q44 0 77 16t37 38l48 302q4 26 -30.5 45t-87.5 19h-128l55 343q1 9 14.5 15t33.5 6h60q18 0 30.5 -6t11.5 -15l-26 -161h106l22 140q4 22 -24.5 38t-72.5 16h-150zM318 406
q22 0 36.5 -7.5t12.5 -18.5l-55 -348q-1 -9 -15.5 -15.5t-32.5 -6.5h-60q-19 0 -31.5 6.5t-10.5 15.5l59 374h97z" />
    <glyph glyph-name="seven" unicode="7" horiz-adv-x="473" 
d="M275 794q-16 0 -33.5 -2.5t-39 -14.5t-24.5 -32l-37 -233h107l43 270h146l-332 -772h-53l-2 -12h203l2 12h-44l338 784h-274z" />
    <glyph glyph-name="eight" unicode="8" horiz-adv-x="464" 
d="M284 794q-45 0 -79 -15.5t-38 -38.5l-44 -280q-2 -16 12 -28.5t40 -19.5q-62 -15 -67 -48l-50 -312q-4 -22 25.5 -38t74.5 -16h148q45 0 78.5 15.5t37.5 38.5l50 312q2 16 -12 28.5t-41 19.5q63 15 68 48l44 280q4 22 -25 38t-74 16h-148zM387 782q18 0 29.5 -6.5
t9.5 -15.5l-50 -321q-1 -9 -15 -15t-32 -6h-62q-18 0 -29 6t-10 15l50 321q2 9 15.5 15.5t31.5 6.5h62zM334 406q18 0 29.5 -6t10.5 -15l-56 -353q-2 -9 -15 -15.5t-31 -6.5h-63q-18 0 -30 6.5t-10 15.5l56 353q1 9 14.5 15t31.5 6h63z" />
    <glyph glyph-name="nine" unicode="9" 
d="M308 -2q43 0 76 16t37 38l51 322l2 12l56 354q4 22 -24.5 38t-71.5 16h-151q-44 0 -78 -16t-38 -38l-48 -302q-4 -26 31 -45t87 -19h130l-54 -342q-1 -9 -15.5 -15.5t-32.5 -6.5h-63q-18 0 -30 6.5t-10 15.5l41 257h-107l-38 -237q-4 -22 25.5 -38t73.5 -16h151zM271 386
q-22 0 -36.5 7.5t-12.5 18.5l56 349q1 9 14.5 15t31.5 6h63q18 0 30.5 -6t11.5 -15l-60 -375h-98z" />
    <glyph glyph-name="colon" unicode=":" horiz-adv-x="188" 
d="M107 363l-7 -45h88l7 45h-88zM58 50l-7 -44h88l7 44h-88z" />
    <glyph glyph-name="semicolon" unicode=";" horiz-adv-x="239" 
d="M157 363l-7 -45h89l7 45h-89zM107 42l-5 -27l-2 -18h27l-82 -30l-2 -10l144 32l4 26l5 27h-89z" />
    <glyph glyph-name="less" unicode="&#x3c;" horiz-adv-x="315" 
d="M111 387l220 190l21 -25l-191 -165l139 -166l-29 -25l-160 190v1z" />
    <glyph glyph-name="equal" unicode="=" horiz-adv-x="419" 
d="M121 449h319l6 38h-319zM95 286h319l6 38h-319z" />
    <glyph glyph-name="greater" unicode="&#x3e;" horiz-adv-x="315" 
d="M326 387v-1l-220 -190l-21 25l191 166l-139 165l29 25z" />
    <glyph glyph-name="question" unicode="?" 
d="M279 783q-43 0 -76.5 -15.5t-36.5 -37.5l-23 -140h105l26 160q1 9 15.5 15.5t32.5 6.5h61q19 0 31.5 -6.5t10.5 -15.5l-51 -320q-2 -9 -16 -16t-33 -7h-106q-43 0 -77.5 -15.5t-35.5 -37.5l-19 -259h50l77 279q3 9 17 15.5t32 6.5h106q44 0 78 16t37 38l45 280
q3 22 -26 37.5t-73 15.5h-151zM62 42l-7 -45h89l7 45h-89z" />
    <glyph glyph-name="at" unicode="@" horiz-adv-x="875" 
d="M562 786q160 0 255.5 -114t70.5 -274t-156.5 -274t-291.5 -114q-161 0 -256.5 114t-70.5 274q26 161 157.5 274.5t291.5 113.5zM614 100q88 43 149 123t76 175q22 140 -61 239t-223 99t-255.5 -99t-137.5 -239t62 -239t224 -99q27 0 59 5l32 199h-121q-50 0 -83 18
t-29 43l45 284q4 21 36 36t73 15h142q41 0 68.5 -15t23.5 -36zM541 275l56 354q1 8 -11 14t-29 6h-56q-17 0 -31 -6t-15 -14l-52 -329q-2 -9 12.5 -17t35.5 -8h90z" />
    <glyph glyph-name="A" unicode="A" 
d="M413 0h-107l65 408h-149l-65 -408h-107l118 742q3 22 37 38t78 16h149q44 0 73 -16t26 -38zM224 420h149l54 342q2 9 -10 15.5t-30 6.5h-63q-18 0 -31 -6.5t-15 -15.5z" />
    <glyph glyph-name="B" unicode="B" horiz-adv-x="464" 
d="M176 796l-2 -12l-57 -364l-2 -12l-63 -396l-2 -12h257q44 0 78 16t38 38l48 307q4 22 -25 37.5t-73 15.5q44 0 77.5 15.5t37.5 37.5l44 275q3 22 -26 38t-73 16h-257zM281 784h75q31 0 51 -11t18 -27l-45 -288q-3 -16 -26.5 -27t-54.5 -11h-75zM222 408h75q31 0 51 -11
t18 -27l-51 -320q-2 -16 -26 -27t-55 -11h-75z" />
    <glyph glyph-name="C" unicode="C" 
d="M283 796q-44 0 -78 -16t-37 -38l-109 -688q-4 -22 25 -38t73 -16h149q44 0 78 16t38 38l27 174h-107l-31 -194q-2 -9 -15 -15.5t-31 -6.5h-63q-18 0 -30 6.5t-10 15.5l116 728q2 9 15 15.5t31 6.5h63q18 0 30 -6.5t10 -15.5l-31 -194h107l28 174q3 22 -26 38t-73 16h-149
z" />
    <glyph glyph-name="D" unicode="D" 
d="M176 795l-2 -11l-122 -773l-2 -11h258q43 0 76.5 16t37.5 38l109 688q3 22 -25.5 37.5t-71.5 15.5h-258zM281 784h74q31 0 52 -11t19 -27l-110 -697q-3 -16 -27.5 -27t-55.5 -11h-74z" />
    <glyph glyph-name="E" unicode="E" 
d="M50 0l126 796h363l-2 -12h-256l-57 -364h255l-2 -12h-255l-63 -396h256l-2 -12h-363z" />
    <glyph glyph-name="F" unicode="F" horiz-adv-x="464" 
d="M50 0l126 796h363l-2 -12h-256l-57 -364h255l-2 -12h-255l-65 -408h-107z" />
    <glyph glyph-name="G" unicode="G" 
d="M283 796q-44 0 -78 -16t-37 -38l-109 -688q-4 -22 25 -38t73 -16h151q43 0 76.5 16t37.5 38l58 366h-181l-2 -12h76l-60 -374q-1 -9 -15.5 -15.5t-32.5 -6.5h-61q-19 0 -31.5 6.5t-10.5 15.5l116 728q2 9 15.5 15.5t32.5 6.5h61q18 0 30.5 -6.5t11.5 -15.5l-31 -194h105
l28 174q3 22 -25.5 38t-71.5 16h-151z" />
    <glyph glyph-name="H" unicode="H" 
d="M176 796l-126 -796h107l65 408h149l-65 -408h107l126 796h-107l-59 -376h-149l59 376h-107z" />
    <glyph glyph-name="I" unicode="I" horiz-adv-x="207" 
d="M176 796l-126 -796h107l126 796h-107z" />
    <glyph glyph-name="J" unicode="J" 
d="M539 796h-107l-121 -762q-2 -9 -15.5 -15.5t-32.5 -6.5h-61q-18 0 -30.5 6.5t-11.5 15.5l28 176h-105l-24 -156q-4 -22 24.5 -38t71.5 -16h151q44 0 78 16t38 38z" />
    <glyph glyph-name="K" unicode="K" 
d="M539 796h-107l-53 -338q-3 -16 -26.5 -27t-54.5 -11h-74l46 291l13 85h-107l-13 -85l-46 -291l-2 -12l-53 -332l-12 -76h107l12 76l53 332h74q31 0 51 -11t18 -27l-59 -370h107l57 361q4 22 -25 37.5t-73 15.5q44 0 77.5 15.5t37.5 37.5z" />
    <glyph glyph-name="L" unicode="L" 
d="M176 795l-126 -795h363l2 11h-256l124 784h-107z" />
    <glyph glyph-name="M" unicode="M" horiz-adv-x="581" 
d="M176 795l-126 -796h22l108 684l18 -684h108l226 668l-106 -668h105l126 796h-105v-1l-248 -732l-20 733h-108z" />
    <glyph glyph-name="N" unicode="N" 
d="M50 0h22l115 723l113 -723h113l126 795h-22l-118 -743l-117 743h-106z" />
    <glyph glyph-name="O" unicode="O" 
d="M282 795q-43 0 -77 -16t-37 -37l-110 -689q-3 -22 26 -38t72 -16h150q44 0 78 16t37 38l110 689q3 21 -26 37t-73 16h-150zM387 783q18 0 29.5 -6t10.5 -15l-116 -729q-2 -9 -15 -15.5t-31 -6.5h-63q-18 0 -30 6.5t-11 15.5l116 729q1 9 15 15t32 6h63z" />
    <glyph glyph-name="P" unicode="P" 
d="M176 795l-2 -11l-58 -365l-1 -11l-65 -408h107l65 408h149q44 0 77.5 15.5t37.5 38.5l45 280q3 22 -26 37.5t-73 15.5h-256zM281 784h74q31 0 51 -11t18 -27l-46 -289q-2 -16 -26 -27t-55 -11h-74z" />
    <glyph glyph-name="Q" unicode="Q" 
d="M283 795q-44 0 -78 -15.5t-37 -37.5l-109 -688q-4 -22 25 -38t73 -16h127l77 -44h45l-79 45q38 4 64.5 19t30.5 34l109 688q3 22 -25.5 37.5t-71.5 15.5h-151zM240 50l-4 -24l27 -15h-59q-19 0 -31.5 7t-10.5 16l116 728q2 9 15.5 15.5t32.5 6.5h61q18 0 30.5 -6.5
t11.5 -15.5l-116 -728q-1 -9 -15 -16z" />
    <glyph glyph-name="R" unicode="R" 
d="M176 795l-2 -11l-58 -365l-1 -11l-65 -408h105l65 408h75q31 0 51.5 -11t18.5 -27l-59 -370h107l57 360q3 18 -15.5 32t-50.5 19q33 5 56 19t26 32l45 280q3 22 -26 37.5t-73 15.5h-256zM279 784h75q31 0 51.5 -11t18.5 -27l-46 -289q-2 -16 -26 -27t-56 -11h-75z" />
    <glyph glyph-name="S" unicode="S" 
d="M281 795q-43 0 -76.5 -16t-36.5 -37l-45 -281q-4 -22 25 -37.5t72 -15.5h106q19 0 31 -6.5t10 -15.5l-56 -353q-2 -9 -15.5 -15.5t-32.5 -6.5h-61q-18 0 -30.5 6.5t-11.5 15.5l27 172h-105l-24 -152q-3 -22 25.5 -38t71.5 -16h151q44 0 78 16t37 38l50 313
q4 22 -25.5 37.5t-73.5 15.5h-106q-18 0 -30 6.5t-11 15.5l51 321q1 9 15.5 15t32.5 6h61q19 0 31 -6t11 -15l-31 -195h107l28 175q3 21 -26 37t-73 16h-151z" />
    <glyph glyph-name="T" unicode="T" horiz-adv-x="535" 
d="M176 795l-2 -11h178l-124 -784h107l124 784h150l2 11h-435z" />
    <glyph glyph-name="U" unicode="U" 
d="M539 795h-107l-121 -762q-2 -9 -15 -15.5t-31 -6.5h-63q-18 0 -30 6.5t-10 15.5l121 762h-107l-118 -742q-3 -22 26 -38t73 -16h149q44 0 78 16t37 38z" />
    <glyph glyph-name="V" unicode="V" horiz-adv-x="485" 
d="M176 795v-795h107l278 795h-22l-255 -730l-1 730h-107z" />
    <glyph glyph-name="W" unicode="W" horiz-adv-x="775" 
d="M176 794l23 -795h105v3l166 595l1 -598h107v2l273 793h-22l-252 -732l-3 732h-105l-2 -116l-163 -602l-21 718h-107z" />
    <glyph glyph-name="X" unicode="X" horiz-adv-x="535" 
d="M186 795l101 -421l-237 -374h24l220 348l84 -348h107l-114 471l205 324h-22l-188 -298l-73 298h-107z" />
    <glyph glyph-name="Y" unicode="Y" horiz-adv-x="495" 
d="M369 438l202 357h-22l-187 -326l-76 326h-110l85 -358l-69 -437h108z" />
    <glyph glyph-name="Z" unicode="Z" horiz-adv-x="532" 
d="M164 10l437 773l7 11h-363l-2 -11h253l-446 -784h365l2 11h-253z" />
    <glyph glyph-name="bracketleft" unicode="[" horiz-adv-x="356" 
d="M174 786l-1 -11l-121 -761l-2 -12h256l2 12h-149l121 761h149l1 11h-256z" />
    <glyph glyph-name="backslash" unicode="\" 
d="M282 792l131 -795h-107l-131 795h107z" />
    <glyph glyph-name="bracketright" unicode="]" horiz-adv-x="358" 
d="M432 786l-1 -11l-121 -761l-2 -12h-258l2 12h151l121 761h-151l1 11h258z" />
    <glyph glyph-name="asciicircum" unicode="^" horiz-adv-x="416" 
d="M332 782l133 -157l-24 -20l-117 136l-157 -136l-18 20z" />
    <glyph glyph-name="underscore" unicode="_" horiz-adv-x="689" 
d="M53 17l-3 -18h589l3 18h-589z" />
    <glyph glyph-name="a" unicode="a" 
d="M413 0h-107l65 408h-149l-65 -408h-107l118 742q3 22 37 38t78 16h149q44 0 73 -16t26 -38zM224 420h149l54 342q2 9 -10 15.5t-30 6.5h-63q-18 0 -31 -6.5t-15 -15.5z" />
    <glyph glyph-name="b" unicode="b" horiz-adv-x="464" 
d="M176 796l-2 -12l-57 -364l-2 -12l-63 -396l-2 -12h257q44 0 78 16t38 38l48 307q4 22 -25 37.5t-73 15.5q44 0 77.5 15.5t37.5 37.5l44 275q3 22 -26 38t-73 16h-257zM281 784h75q31 0 51 -11t18 -27l-45 -288q-3 -16 -26.5 -27t-54.5 -11h-75zM222 408h75q31 0 51 -11
t18 -27l-51 -320q-2 -16 -26 -27t-55 -11h-75z" />
    <glyph glyph-name="c" unicode="c" 
d="M283 796q-44 0 -78 -16t-37 -38l-109 -688q-4 -22 25 -38t73 -16h149q44 0 78 16t38 38l27 174h-107l-31 -194q-2 -9 -15 -15.5t-31 -6.5h-63q-18 0 -30 6.5t-10 15.5l116 728q2 9 15 15.5t31 6.5h63q18 0 30 -6.5t10 -15.5l-31 -194h107l28 174q3 22 -26 38t-73 16h-149
z" />
    <glyph glyph-name="d" unicode="d" 
d="M176 795l-2 -11l-122 -773l-2 -11h258q43 0 76.5 16t37.5 38l109 688q3 22 -25.5 37.5t-71.5 15.5h-258zM281 784h74q31 0 52 -11t19 -27l-110 -697q-3 -16 -27.5 -27t-55.5 -11h-74z" />
    <glyph glyph-name="e" unicode="e" 
d="M50 0l126 796h363l-2 -12h-256l-57 -364h255l-2 -12h-255l-63 -396h256l-2 -12h-363z" />
    <glyph glyph-name="f" unicode="f" 
d="M50 0l126 796h363l-2 -12h-256l-57 -364h255l-2 -12h-255l-65 -408h-107z" />
    <glyph glyph-name="g" unicode="g" 
d="M283 796q-44 0 -78 -16t-37 -38l-109 -688q-4 -22 25 -38t73 -16h151q43 0 76.5 16t37.5 38l58 366h-181l-2 -12h76l-60 -374q-1 -9 -15.5 -15.5t-32.5 -6.5h-61q-19 0 -31.5 6.5t-10.5 15.5l116 728q2 9 15.5 15.5t32.5 6.5h61q18 0 30.5 -6.5t11.5 -15.5l-31 -194h105
l28 174q3 22 -25.5 38t-71.5 16h-151z" />
    <glyph glyph-name="h" unicode="h" 
d="M176 796l-126 -796h107l65 408h149l-65 -408h107l126 796h-107l-59 -376h-149l59 376h-107z" />
    <glyph glyph-name="i" unicode="i" horiz-adv-x="207" 
d="M176 796l-126 -796h107l126 796h-107z" />
    <glyph glyph-name="j" unicode="j" 
d="M539 796h-107l-121 -762q-2 -9 -15.5 -15.5t-32.5 -6.5h-61q-18 0 -30.5 6.5t-11.5 15.5l28 176h-105l-24 -156q-4 -22 24.5 -38t71.5 -16h151q44 0 78 16t38 38z" />
    <glyph glyph-name="k" unicode="k" 
d="M539 796h-107l-53 -338q-3 -16 -26.5 -27t-54.5 -11h-74l46 291l13 85h-107l-13 -85l-46 -291l-2 -12l-53 -332l-12 -76h107l12 76l53 332h74q31 0 51 -11t18 -27l-59 -370h107l57 361q4 22 -25 37.5t-73 15.5q44 0 77.5 15.5t37.5 37.5z" />
    <glyph glyph-name="l" unicode="l" 
d="M176 795l-126 -795h363l2 11h-256l124 784h-107z" />
    <glyph glyph-name="m" unicode="m" horiz-adv-x="581" 
d="M176 795l-126 -796h22l108 684l18 -684h108l226 668l-106 -668h105l126 796h-105v-1l-248 -732l-20 733h-108z" />
    <glyph glyph-name="n" unicode="n" 
d="M50 0h22l115 723l113 -723h113l126 795h-22l-118 -743l-117 743h-106z" />
    <glyph glyph-name="o" unicode="o" 
d="M282 795q-43 0 -77 -16t-37 -37l-110 -689q-3 -22 26 -38t72 -16h150q44 0 78 16t37 38l110 689q3 21 -26 37t-73 16h-150zM387 783q18 0 29.5 -6t10.5 -15l-116 -729q-2 -9 -15 -15.5t-31 -6.5h-63q-18 0 -30 6.5t-11 15.5l116 729q1 9 15 15t32 6h63z" />
    <glyph glyph-name="p" unicode="p" 
d="M176 795l-2 -11l-58 -365l-1 -11l-65 -408h107l65 408h149q44 0 77.5 15.5t37.5 38.5l45 280q3 22 -26 37.5t-73 15.5h-256zM281 784h74q31 0 51 -11t18 -27l-46 -289q-2 -16 -26 -27t-55 -11h-74z" />
    <glyph glyph-name="q" unicode="q" 
d="M283 795q-44 0 -78 -15.5t-37 -37.5l-109 -688q-4 -22 25 -38t73 -16h127l77 -44h45l-79 45q38 4 64.5 19t30.5 34l109 688q3 22 -25.5 37.5t-71.5 15.5h-151zM240 50l-4 -24l27 -15h-59q-19 0 -31.5 7t-10.5 16l116 728q2 9 15.5 15.5t32.5 6.5h61q18 0 30.5 -6.5
t11.5 -15.5l-116 -728q-1 -9 -15 -16z" />
    <glyph glyph-name="r" unicode="r" 
d="M176 795l-2 -11l-58 -365l-1 -11l-65 -408h105l65 408h75q31 0 51.5 -11t18.5 -27l-59 -370h107l57 360q3 18 -15.5 32t-50.5 19q33 5 56 19t26 32l45 280q3 22 -26 37.5t-73 15.5h-256zM279 784h75q31 0 51.5 -11t18.5 -27l-46 -289q-2 -16 -26 -27t-56 -11h-75z" />
    <glyph glyph-name="s" unicode="s" 
d="M281 795q-43 0 -76.5 -16t-36.5 -37l-45 -281q-4 -22 25 -37.5t72 -15.5h106q19 0 31 -6.5t10 -15.5l-56 -353q-2 -9 -15.5 -15.5t-32.5 -6.5h-61q-18 0 -30.5 6.5t-11.5 15.5l27 172h-105l-24 -152q-3 -22 25.5 -38t71.5 -16h151q44 0 78 16t37 38l50 313
q4 22 -25.5 37.5t-73.5 15.5h-106q-18 0 -30 6.5t-11 15.5l51 321q1 9 15.5 15t32.5 6h61q19 0 31 -6t11 -15l-31 -195h107l28 175q3 21 -26 37t-73 16h-151z" />
    <glyph glyph-name="t" unicode="t" horiz-adv-x="535" 
d="M176 795l-2 -11h178l-124 -784h107l124 784h150l2 11h-435z" />
    <glyph glyph-name="u" unicode="u" 
d="M539 795h-107l-121 -762q-2 -9 -15 -15.5t-31 -6.5h-63q-18 0 -30 6.5t-10 15.5l121 762h-107l-118 -742q-3 -22 26 -38t73 -16h149q44 0 78 16t37 38z" />
    <glyph glyph-name="v" unicode="v" horiz-adv-x="485" 
d="M176 795v-795h107l278 795h-22l-255 -730l-1 730h-107z" />
    <glyph glyph-name="w" unicode="w" horiz-adv-x="775" 
d="M176 794l23 -795h105v3l166 595l1 -598h107v2l273 793h-22l-252 -732l-3 732h-105l-2 -116l-163 -602l-21 718h-107z" />
    <glyph glyph-name="x" unicode="x" horiz-adv-x="535" 
d="M186 795l101 -421l-237 -374h24l220 348l84 -348h107l-114 471l205 324h-22l-188 -298l-73 298h-107z" />
    <glyph glyph-name="y" unicode="y" horiz-adv-x="495" 
d="M369 438l202 357h-22l-187 -326l-76 326h-110l85 -358l-69 -437h108z" />
    <glyph glyph-name="z" unicode="z" horiz-adv-x="532" 
d="M164 10l437 773l7 11h-363l-2 -11h253l-446 -784h365l2 11h-253z" />
    <glyph glyph-name="braceleft" unicode="{" horiz-adv-x="508" 
d="M390 519l8 51l29 180q2 12 21.5 21.5t45.5 9.5h88l1 11h-150q-45 0 -78.5 -15.5t-37.5 -38.5l-27 -168l-8 -51l-1 -5l-9 -60q-2 -16 -26 -27t-55 -11h-75l-2 -11h75q31 0 51 -11t18 -27l-4 -28l-10 -60l-10 -66l-26 -164q-4 -22 25.5 -37t74.5 -15h150l1 11h-88
q-26 0 -42.5 9t-14.5 21l28 175l10 66l4 24l2 10l7 44q3 22 -26 37.5t-74 15.5q45 0 79 16t37 38l3 14z" />
    <glyph glyph-name="bar" unicode="|" horiz-adv-x="207" 
d="M175 792l-125 -795h107l125 795h-107z" />
    <glyph glyph-name="braceright" unicode="}" horiz-adv-x="506" 
d="M282 519l8 51l29 180q2 12 -15 21.5t-42 9.5h-88l1 11h150q45 0 74.5 -16t25.5 -38l-27 -168l-8 -51l-1 -5l-9 -60q-2 -16 18 -27t51 -11h73l-2 -11h-73q-31 0 -55 -11t-26 -27l-4 -28l-10 -60l-10 -66l-26 -164q-4 -22 -37.5 -37t-78.5 -15h-150l1 11h88q25 0 45 9
t22 21l28 175l10 66l4 24l2 10l7 44q3 22 37 37.5t79 15.5q-45 0 -74 15.5t-26 38.5l3 14z" />
    <glyph glyph-name="asciitilde" unicode="~" horiz-adv-x="612" 
d="M124 468l-10 -62q-3 -19 5 -32t22 -13h113l7 45h-125q-13 0 -11 19l4 25q4 18 17 18h206q5 0 8.5 -5.5t2.5 -12.5l-1 -5l-2 -17l-4 -22q-3 -19 5 -32t22 -13h201q14 0 26.5 13t15.5 32l10 62q3 18 -5.5 31t-22.5 13h-98l-7 -44h111q6 0 9.5 -5.5t1.5 -12.5l-4 -25
q-2 -19 -17 -19h-227q-13 0 -11 19l1 3l4 28l2 12q3 18 -5 31t-22 13h-181q-14 0 -26 -13t-15 -31z" />
    <glyph glyph-name="exclamdown" unicode="&#xa1;" horiz-adv-x="205" 
d="M263 730l7 45h-89l-7 -45h89zM153 -11l77 677h-53l-129 -677h105z" />
    <glyph glyph-name="copyright" unicode="&#xa9;" horiz-adv-x="875" 
d="M438 10q-160 0 -274 114t-114 274t114 274t274 114t273.5 -114t113.5 -274t-113.5 -274t-273.5 -114zM438 60q27 0 59 5l101 35q81 43 129.5 123t48.5 175q0 140 -99 239t-239 99t-239.5 -99t-99.5 -239t99.5 -239t239.5 -99zM375 174q-36 0 -61 9t-25 21v380q0 12 25 21
t61 9h119q36 0 61 -9t25 -21v-96h-86v108q0 12 -34 12h-51q-34 0 -34 -12v-404q0 -12 34 -12h51q34 0 34 12v108h86v-96q0 -12 -25 -21t-61 -9h-119z" />
    <glyph glyph-name="registered" unicode="&#xae;" horiz-adv-x="875" 
d="M438 10q-160 0 -274 114t-114 274t114 274t274 114t273.5 -114t113.5 -274t-113.5 -274t-273.5 -114zM438 60q27 0 59 5l101 35q81 43 129.5 123t48.5 175q0 140 -99 239t-239 99t-239.5 -99t-99.5 -239t99.5 -239t239.5 -99zM276 610v-427h92v219h65q28 0 47.5 -6
t19.5 -14v-199h93v193q0 21 -65 28q29 2 47 9.5t18 17.5v150q0 12 -27.5 20.5t-65.5 8.5h-224zM368 604h65q28 0 47.5 -6t19.5 -14v-156q0 -8 -19.5 -14t-47.5 -6h-65v196z" />
    <glyph glyph-name="questiondown" unicode="&#xbf;" horiz-adv-x="465" 
d="M526 739l7 44h-90l-7 -44h90zM308 -3q44 0 77.5 15.5t37.5 37.5l22 140h-107l-25 -160q-2 -9 -16 -15.5t-33 -6.5h-61q-18 0 -30 6.5t-11 15.5l50 320q1 10 16 16.5t33 6.5h106q45 0 79.5 15.5t35.5 37.5l19 259h-50l-79 -279q-7 -22 -48 -22h-106q-43 0 -77.5 -16
t-38.5 -38l-44 -280q-4 -22 26 -37.5t73 -15.5h151z" />
    <glyph glyph-name="multiply" unicode="&#xd7;" horiz-adv-x="352" 
d="M127 487l82 -99l-108 -94l23 -28l110 94l83 -99l31 27l-84 99l108 93l-24 28l-107 -93l-83 98z" />
    <glyph glyph-name="divide" unicode="&#xf7;" horiz-adv-x="419" 
d="M241 495l-7 -45h89l7 45h-89zM108 368h319l6 38h-319zM213 318l-7 -45h89l7 45h-89z" />
    <glyph glyph-name="quoteleft" unicode="&#x2018;" horiz-adv-x="239" 
d="M262 774l4 26l3 19h-27l81 30l2 10l-144 -33l-8 -52h89z" />
    <glyph glyph-name="quoteright" unicode="&#x2019;" horiz-adv-x="239" 
d="M235 859l-4 -26l-3 -19h27l-81 -29l-1 -11l144 32l4 27l4 26h-90z" />
    <glyph glyph-name="quotesinglbase" unicode="&#x201a;" horiz-adv-x="239" 
d="M106 37l-4 -26l-3 -18h27l-82 -31l-1 -9l144 32l8 52h-89z" />
    <glyph glyph-name="quotedblleft" unicode="&#x201c;" horiz-adv-x="424" 
d="M262 774l4 26l3 19h-27l81 30l2 10l-144 -33l-8 -52h89zM448 774l4 26l3 19h-27l80 30l2 10l-144 -33l-8 -52h90z" />
    <glyph glyph-name="quotedblright" unicode="&#x201d;" horiz-adv-x="424" 
d="M237 859l-4 -26l-3 -19h27l-83 -29l-1 -11l144 32l4 27l4 26h-88zM422 859l-4 -26l-3 -19h28l-84 -29l-1 -11l144 32l4 27l4 26h-88z" />
    <glyph glyph-name="quotedblbase" unicode="&#x201e;" horiz-adv-x="387" 
d="M106 37l-4 -26l-3 -18h27l-82 -31l-1 -9l144 32l8 52h-89zM255 37l-4 -26l-3 -18h27l-84 -31l-2 -10l146 33l8 52h-88z" />
    <glyph glyph-name="trademark" unicode="&#x2122;" horiz-adv-x="573" 
d="M50 794v-5h87v-387h53v387h74v5h-214zM286 794v-392h11v337l62 -337h53l59 329v-329h52v392h-52l-65 -361l-67 361h-53z" />
    <glyph glyph-name="minus" unicode="&#x2212;" horiz-adv-x="419" 
d="M108 368h319l6 38h-319z" />
    <glyph glyph-name="_FSHallmark" horiz-adv-x="732" 
d="M52 675h630v-74h-630v74zM600 460q0 9 -5 17q-4 5 -14 13q-12 6 -18 8q-14 2 -18 2q-19 0 -36 -9q-16 -10 -16 -22q0 -23 14 -31q16 -9 34 -13l27 -6l23 -6q13 -4 22 -5q7 -1 19 -5q3 -2 8 -4.5t8 -3.5q15 -9 24 -21q8 -14 9 -33q1 -21 -8 -38q-20 -32 -55 -44
q-38 -12 -72 -12q-27 0 -51 7t-44 21t-32 36q-12 21 -12 49l73 -1q0 -3 3 -11q2 -12 11 -20q9 -9 19 -13q13 -7 36 -7q25 0 40 9q15 7 15 19q0 21 -60 36q-56 14 -92 33q-38 20 -38 63q0 36 25 57q24 20 55 30q24 6 52 6q36 0 72 -14q33 -14 50 -50q8 -21 8 -37h-76z
M135 247h-83v313h265v-71h-182v-70h151v-70h-151v-102zM310 285q0 16 11 27q10 10 27 10q16 0 30 -11q12 -11 12 -26t-12 -26q-13 -10 -30 -10q-15 0 -26 11q-12 10 -12 25zM50 208h631v-75h-631v75z" />
    <glyph glyph-name="_Fontastica" horiz-adv-x="629" 
d="M138 186h-87q-1 1 -1 4v510h382v-78h-294v-210h295v-79h-295v-147zM193 554h296v146h87v-513h-383v78h296v210h-296v79zM489 136q-5 -3 -5 -8q0 -7 4 -11q3 -4 9 -4q7 0 14 4l4 -4q-6 -9 -18 -9q-8 0 -16 5q-6 8 -7 16q-1 10 6 17q8 8 17 8q10 0 18 -8l-4 -6l-2 2
q-2 1 -3 2t-7 1h-2q-2 -1 -5 -3zM51 149h32v-8h-21v-12h20v-7h-20v-17h-11v44zM123 149q15 0 22 -12q6 -8 2 -20q-5 -12 -19 -13l-6 -2q-6 0 -9 3q-14 6 -14 19q0 11 7 18q6 7 17 7zM208 105h-3q-1 -1 -3 -1t-7 5l-4 6q-1 1 -2.5 3t-1.5 3l-9 11v-27h-10v44h8q3 -1 5 -6
q7 -7 10 -11q7 -12 8 -13v30h9v-44zM227 149h37v-8h-14v-36h-9v36h-14v8zM364 128q9 0 9 -10q1 -9 -8 -13q-1 -1 -8 -1q-14 0 -21 7q1 1 1 2l1 1q0 2 1 3l14 -4h6q3 3 3 2q0 8 -10 9q-1 0 -2 1t-4 1q-7 1 -7 10q-1 7 6 11q6 2 10 2q11 0 18 -4l-4 -8q-1 1 -3 1q-1 0 -2 1
t-3 1q-1 0 -2 1h-6q-3 0 -3 -3q-2 -2 3 -6q3 -1 6.5 -2.5t4.5 -1.5zM388 149h38v-8h-14v-36h-10v36h-14v8zM444 149h11v-44h-11v44zM560 149l9 -21q1 -4 5 -12q1 -6 5 -11h-10l-4 9h-21l-4 -9h-10q11 21 18 44h12zM302 147q2 -5 5 -10t5 -10q0 -1 1.5 -5t2.5 -6t2.5 -6
t1.5 -5h-10q-1 1 -1 4q0 1 -1 2q0 1 -1 3h-20q-1 -1 -1 -5q-1 -1 -1 -2l-2 -2h-9l18 42h10zM136 127q0 5 -3 10q-4 4 -11 4q-1 -1 -3 -1q-4 -1 -8 -7t-1 -11q3 -10 13 -10q3 0 4 1q9 1 9 13v1zM304 122l-1 2l-1 2l-1 2l-1 2q-1 1 -1 4q-1 0 -1 2t-1 2l-8 -16h15zM561 122
q-1 1 -1 4l-1 2l-1 2l-1 2q-1 1 -1 2l-1 2l-1 2l-7 -16h14z" />
    </font>
</defs>
</svg>
