<svg xmlns="http://www.w3.org/2000/svg">
<defs>
<font id="Lumen-Bold" horiz-adv-x="496" >
  <font-face 
    font-family="Lumen"
    font-weight="700"
    font-stretch="normal"
    units-per-em="1000"
    panose-1="0 0 8 0 0 0 0 0 0 0"
    ascent="800"
    descent="-200"
    x-height="800"
    cap-height="802"
    bbox="50 -51 850 929"
    underline-thickness="50"
    underline-position="-200"
    unicode-range="U+0020-2212"
  />
<missing-glyph horiz-adv-x="577" 
d="M50 789h477v-784h-477v784zM491 48v693h-405v-693h405zM189 186h-40l118 254l-118 254h40l101 -218l100 218h39l-116 -254l116 -254h-39l-100 219zM408 116q-2 -1 -2 -6q0 -4 2 -7q1 -2 6 -2q6 0 9 2l2 -2q-3 -7 -11 -7q-2 0 -6 2l-5 2q-3 2 -4 10q-2 8 3 12q7 5 12 5
q6 0 11 -5l-2 -4l-2 1q-1 0 -1 1q0 2 -5 2h-1q-4 -2 -6 -4zM125 107v-12h-8v29h22v-4h-14v-8h13v-5h-13zM158 95q-9 5 -9 13q0 9 5 12q3 4 10 4q11 0 15 -7q5 -7 1 -14q-2 -7 -11 -9l-5 -1q-2 0 -6 2zM215 105v19h6v-29h-1q-1 -1 -3 -1l-1 2q-2 1 -3 2q-3 3 -4 3
q0 1 -0.5 2.5t-1.5 2.5q-2 3 -6 7v-18h-7v29h6q1 0 2 -1.5t2 -1.5q0 -1 2 -3.5t3 -4.5q4 -4 6 -8zM235 120v4h24v-4h-9v-25h-6v25h-9zM325 110q6 0 6 -7q2 -5 -6 -8q0 -1 -5 -1q-4 0 -14 5q2 1 2 2t1 2l9 -2h3h3q0 5 -7 7q0 -1 -1 0q0 1 -3 1q-4 1 -4 7q-1 5 3 7q3 1 7 1
q9 0 12 -2l-3 -5h-2h-1l-1 1q-1 0 -3 2h-3q-2 0 -2 -3q0 -2 2 -4q6 0 7 -3zM341 120v4h26v-4h-10v-25h-7v25h-9zM378 95v29h7v-29h-7zM445 101l-3 -6h-6q9 18 11 29h8l6 -14l4 -8l3 -7h-7l-2 6h-14zM290 110l4 -8q0 -3 2 -7h-7v3l-1 1q0 1 -1 2h-13q-1 0 -1 -3v-1
q-1 0 -2 -2h-6l13 28h6q0 -3 3 -6t3 -7zM157 114q-1 -1 -1.5 -3.5t0.5 -3.5q1 -7 8 -7q3 0 4 1q6 0 6 8v1q0 5 -3 7q-3 3 -7 3q0 -2 -2 -2q-2 -1 -5 -4zM275 107q9 0 9 2l-2 3v3l-1 1l-1 1zM451 117l-5 -10q9 0 9 2q0 3 -1 3v2q0 1 -1 1t-1 1t-1 1z" />
    <glyph glyph-name=".notdef" horiz-adv-x="577" 
d="M50 789h477v-784h-477v784zM491 48v693h-405v-693h405zM189 186h-40l118 254l-118 254h40l101 -218l100 218h39l-116 -254l116 -254h-39l-100 219zM408 116q-2 -1 -2 -6q0 -4 2 -7q1 -2 6 -2q6 0 9 2l2 -2q-3 -7 -11 -7q-2 0 -6 2l-5 2q-3 2 -4 10q-2 8 3 12q7 5 12 5
q6 0 11 -5l-2 -4l-2 1q-1 0 -1 1q0 2 -5 2h-1q-4 -2 -6 -4zM125 107v-12h-8v29h22v-4h-14v-8h13v-5h-13zM158 95q-9 5 -9 13q0 9 5 12q3 4 10 4q11 0 15 -7q5 -7 1 -14q-2 -7 -11 -9l-5 -1q-2 0 -6 2zM215 105v19h6v-29h-1q-1 -1 -3 -1l-1 2q-2 1 -3 2q-3 3 -4 3
q0 1 -0.5 2.5t-1.5 2.5q-2 3 -6 7v-18h-7v29h6q1 0 2 -1.5t2 -1.5q0 -1 2 -3.5t3 -4.5q4 -4 6 -8zM235 120v4h24v-4h-9v-25h-6v25h-9zM325 110q6 0 6 -7q2 -5 -6 -8q0 -1 -5 -1q-4 0 -14 5q2 1 2 2t1 2l9 -2h3h3q0 5 -7 7q0 -1 -1 0q0 1 -3 1q-4 1 -4 7q-1 5 3 7q3 1 7 1
q9 0 12 -2l-3 -5h-2h-1l-1 1q-1 0 -3 2h-3q-2 0 -2 -3q0 -2 2 -4q6 0 7 -3zM341 120v4h26v-4h-10v-25h-7v25h-9zM378 95v29h7v-29h-7zM445 101l-3 -6h-6q9 18 11 29h8l6 -14l4 -8l3 -7h-7l-2 6h-14zM290 110l4 -8q0 -3 2 -7h-7v3l-1 1q0 1 -1 2h-13q-1 0 -1 -3v-1
q-1 0 -2 -2h-6l13 28h6q0 -3 3 -6t3 -7zM157 114q-1 -1 -1.5 -3.5t0.5 -3.5q1 -7 8 -7q3 0 4 1q6 0 6 8v1q0 5 -3 7q-3 3 -7 3q0 -2 -2 -2q-2 -1 -5 -4zM275 107q9 0 9 2l-2 3v3l-1 1l-1 1zM451 117l-5 -10q9 0 9 2q0 3 -1 3v2q0 1 -1 1t-1 1t-1 1z" />
    <glyph glyph-name=".null" horiz-adv-x="0" 
 />
    <glyph glyph-name="nonmarkingreturn" horiz-adv-x="333" 
 />
    <glyph glyph-name="space" unicode=" " horiz-adv-x="400" 
 />
    <glyph glyph-name="exclam" unicode="!" horiz-adv-x="244" 
d="M194 781h-144l23 -688h90zM185 66h-127v-77h127v77z" />
    <glyph glyph-name="quotedbl" unicode="&#x22;" horiz-adv-x="457" 
d="M100 804l-50 -19v-44l176 40v81h-126v-58zM282 803l-50 -18v-44l175 40v81h-125v-59z" />
    <glyph glyph-name="numbersign" unicode="#" horiz-adv-x="765" 
d="M384 798h-145l-52 -290h-90l-16 -45h98l-23 -131h-90l-16 -46h98l-51 -289h144l52 289h144l-52 -289h145l52 289h98l4 46h-94l24 131h97l4 45h-93l51 290h-143l-52 -290h-146zM301 332l24 131h144l-24 -131h-144z" />
    <glyph glyph-name="dollar" unicode="$" horiz-adv-x="497" 
d="M301 48q0 -1 -4 -3q-9 -3 -18 -3h-61q-9 0 -18 3q-3 1 -5 3v181h-145v-164q0 -29 40 -50q28 -14 74 -18h50v-32h61v32q26 -2 53 0q48 2 78 18q41 22 41 50v302q0 30 -41 52q-37 18 -125 16h-55q-21 0 -27 4l-4 2v306q1 1 4 2q8 4 19 4h61q11 0 18 -4h4v-204h146v184
q0 30 -41 52q-30 15 -79 17h-52v32h-61v-32h-49q-47 -4 -75 -17q-40 -21 -40 -52v-270q0 -30 40 -51q25 -13 72 -17q24 -1 74 -1q40 2 56 -2q9 -1 9 -2v-338z" />
    <glyph glyph-name="percent" unicode="%" horiz-adv-x="441" 
d="M384 802h-65l-263 -802h69zM177 724h-127v-78h127v78zM391 156h-126v-78h126v78z" />
    <glyph glyph-name="ampersand" unicode="&#x26;" horiz-adv-x="529" 
d="M193 444v306q1 1 2 1t1.5 0.5t1.5 0.5q8 4 19 4h60q11 0 20 -4q4 0 4 -2v-97h145v79q0 38 -53 56q-36 13 -72 13h-147q-36 0 -72 -13q-52 -20 -52 -56v-270q0 -28 31 -46q-2 -2 -3 -2q-28 -18 -28 -44v-301q0 -36 51 -56q36 -13 73 -13h147q37 0 73 13q52 17 52 56v324
h33v45h-33v40h-145v-40h-84q-11 0 -19 4q-3 0 -5 2zM301 50l-4 -2q-11 -3 -20 -3h-60q-10 0 -19 3q-4 2 -5 2v338q1 0 5 2q9 3 19 3h84v-343z" />
    <glyph glyph-name="quotesingle" unicode="'" horiz-adv-x="276" 
d="M98 803l-48 -18v-44l176 40v81h-128v-59z" />
    <glyph glyph-name="parenleft" unicode="(" horiz-adv-x="393" 
d="M343 798h-168q-37 0 -73 -13q-52 -20 -52 -57v-663q0 -37 52 -55q36 -13 73 -13h168v45h-106q-14 0 -31 5q-9 3 -10 6l-2 2l2 687q1 0 2.5 1t3.5 2l4 2q16 6 31 6h106v45z" />
    <glyph glyph-name="parenright" unicode=")" horiz-adv-x="391" 
d="M216 798h-166v-45h104q15 0 31 -6q6 -1 10 -5l1 -2v-685q0 -1 -1 -3l-10 -5q-17 -5 -31 -5h-104v-45h166q36 0 72 13q53 18 53 55v663q0 37 -52 57q-36 13 -73 13z" />
    <glyph glyph-name="asterisk" unicode="*" horiz-adv-x="577" 
d="M459 895l-127 -44l15 78h-114l10 -78l-125 44l-67 -59l120 -29l-121 -27l68 -59l125 42l-10 -76h114l-14 76l126 -42l68 59l-121 27l121 29z" />
    <glyph glyph-name="plus" unicode="+" horiz-adv-x="453" 
d="M50 426v-71h136v-129h79v129h138v71h-138v127h-79v-127h-136z" />
    <glyph glyph-name="comma" unicode="," horiz-adv-x="276" 
d="M99 11l-49 -19v-42l176 39v81h-127v-59z" />
    <glyph glyph-name="hyphen" unicode="-" horiz-adv-x="452" 
d="M50 412v-53h352v53h-352z" />
    <glyph glyph-name="period" unicode="." horiz-adv-x="226" 
d="M176 79h-126v-78h126v78z" />
    <glyph glyph-name="slash" unicode="/" horiz-adv-x="509" 
d="M459 798h-146l-263 -801h146z" />
    <glyph glyph-name="zero" unicode="0" horiz-adv-x="498" 
d="M323 800h-148q-37 0 -73 -13q-52 -19 -52 -57v-663q0 -37 52 -56q36 -13 73 -13h148q37 0 73 13q52 19 52 56v663q0 38 -52 57q-36 13 -73 13zM303 749v-699q0 -1 -4 -3q-11 -3 -20 -3h-60q-9 0 -20 3q-4 2 -5 2v700q1 0 5 2q11 3 20 3h60q9 0 20 -3z" />
    <glyph glyph-name="one" unicode="1" horiz-adv-x="344" 
d="M246 44v756h-196v-46h52v-710h-47v-46h239v46h-48z" />
    <glyph glyph-name="two" unicode="2" horiz-adv-x="498" 
d="M194 749q1 0 5 2q11 3 20 3h60q9 0 20 -3l4 -2l-1 -307q-4 -2 -20 -4q-10 -1 -49 -1h-58q-40 0 -73 -12q-52 -19 -52 -57v-301q0 -37 52 -56q36 -13 73 -13h148q37 0 73 13q52 19 52 56v245h-145v-262q-2 -2 -5 -3q-9 -3 -19 -3h-60q-9 0 -20 3q-4 2 -5 2v338q5 2 15 3
q8 1 41 1h73q37 0 73 13q52 20 52 57v269q0 38 -52 57q-36 13 -73 13h-148q-37 0 -73 -13q-52 -19 -52 -57v-152h144v171z" />
    <glyph glyph-name="three" unicode="3" 
d="M194 749l4 2q9 3 19 3h61q10 0 19 -3l4 -2v-307q-3 -2 -13 -3q-10 -2 -40 -2h-93v-46h93q32 0 40 -1l13 -2v-338q0 -1 -4 -3q-11 -3 -19 -3h-61q-10 0 -19 3q-2 1 -4 1v213h-144v-194q0 -37 52 -56q36 -13 73 -13h146q37 0 73 13q52 19 52 56v302q0 27 -29 44q-1 1 -2 1
q2 2 3 2q28 20 28 45v270q0 38 -53 56q-36 13 -72 13h-146q-37 0 -73 -13q-52 -18 -52 -56v-143h144v161z" />
    <glyph glyph-name="four" unicode="4" horiz-adv-x="542" 
d="M448 800h-145v-450h-55q-19 0 -38 6q-16 6 -16 13v431h-144v-427q0 -36 52 -56q33 -12 73 -12h128v-261h-51v-45h240v45h-44v756z" />
    <glyph glyph-name="five" unicode="5" 
d="M301 48l-1 -1l-2 -1q-9 -3 -19 -3h-61q-10 0 -20 3l-5 2v262h-143v-245q0 -35 52 -55q38 -12 72 -12h147q35 0 72 12q53 21 53 55v302q0 37 -52 57q-33 12 -73 12h-58q-40 0 -49 1t-21 4v306q1 1 6 3q8 4 19 4h61q10 0 18 -4l4 -1v-236h145v216q0 37 -52 57
q-36 13 -73 13h-147q-37 0 -73 -13q-51 -20 -51 -57v-269q0 -39 52 -56q36 -13 72 -13h71q35 0 42 -1q12 -2 14 -4v-338z" />
    <glyph glyph-name="six" unicode="6" 
d="M194 749q1 0 5 2q9 3 20 3h59q10 0 20 -3l4 -2v-171h144v152q0 38 -52 57q-35 13 -72 13h-147q-37 0 -73 -13q-52 -19 -52 -57v-663q0 -37 52 -56q36 -13 73 -13h147q37 0 72 13q52 19 52 56v291q0 43 -60 64q-41 15 -86 15h-106v312zM302 50q-2 -2 -5 -3q-9 -3 -19 -3
h-59q-11 0 -20 3q-4 2 -5 2v342h76q13 0 24 -4q5 -1 8 -4v-333z" />
    <glyph glyph-name="seven" unicode="7" horiz-adv-x="511" 
d="M461 800h-294q-37 0 -65 -12q-42 -16 -42 -53v-242h144v261h99l-197 -710h-56v-46h239v46h-38z" />
    <glyph glyph-name="eight" unicode="8" horiz-adv-x="497" 
d="M321 800h-145q-37 0 -73 -13q-53 -20 -53 -57v-269q0 -27 28 -45q2 0 4 -2q-2 0 -4 -2q-28 -18 -28 -44v-301q0 -38 53 -56q36 -13 73 -13h145q37 0 73 13q53 18 53 56v301q0 25 -29 44q-2 2 -3 2q2 2 3 2q29 19 29 45v269q0 37 -53 57q-36 13 -73 13zM301 442l-3 -2
q-9 -3 -19 -3h-61q-10 0 -19 3l-4 2v306l4 2q8 4 19 4h61q10 0 18 -4h4v-308zM308 387l1 -337q-2 -2 -5 -3q-9 -3 -18 -3h-62q-10 0 -19 3l-4 1v339l1 1h3q9 3 19 3h62q9 0 18 -3z" />
    <glyph glyph-name="nine" unicode="9" 
d="M303 50q-2 -2 -5 -3q-9 -3 -19 -3h-62q-10 0 -19 3q-2 1 -4 1v265h-144v-246q0 -37 52 -56q36 -13 73 -13h148q36 0 72 13q51 20 51 56v663q0 37 -51 57q-36 13 -72 13h-148q-37 0 -73 -13q-52 -19 -52 -57v-291q0 -40 60 -64q43 -15 85 -15h108v-310zM194 749l4 2
q9 3 19 3h62q9 0 20 -3l4 -2v-343h-76q-10 0 -25 5q-7 2 -8 3v335z" />
    <glyph glyph-name="colon" unicode=":" horiz-adv-x="226" 
d="M176 384h-126v-78h126v78zM176 83h-126v-77h126v77z" />
    <glyph glyph-name="semicolon" unicode=";" horiz-adv-x="276" 
d="M226 384h-127v-78h127v78zM99 15l-49 -18v-43l176 39v82h-127v-60z" />
    <glyph glyph-name="less" unicode="&#x3c;" horiz-adv-x="364" 
d="M263 599l-213 -209l213 -210l51 50l-162 160l162 159z" />
    <glyph glyph-name="equal" unicode="=" horiz-adv-x="453" 
d="M50 504v-71h353v71h-353zM50 347v-71h353v71h-353z" />
    <glyph glyph-name="greater" unicode="&#x3e;" horiz-adv-x="357" 
d="M307 397l-206 202l-51 -50l162 -159l-162 -160l51 -50l206 203v14z" />
    <glyph glyph-name="question" unicode="?" 
d="M192 738q1 1 5 3q11 3 20 3h60q9 0 20 -3l4 -2l-1 -307q-5 -4 -18 -5h-49h-60q-33 0 -71 -12q-52 -19 -52 -55v-3l23 -265h85l36 285q6 3 14 4t42 1h71q40 0 73 12q52 19 52 57v270q0 36 -53 56q-33 12 -72 12h-148q-36 0 -72 -13q-51 -18 -51 -55v-152h142v169zM182 75
h-127v-78h127v78z" />
    <glyph glyph-name="at" unicode="@" horiz-adv-x="900" 
d="M850 401q0 73 -29 143t-79.5 125t-126.5 89t-164 34q-117 0 -210.5 -57.5t-142 -146.5t-48.5 -187t48.5 -187t142 -146.5t210.5 -57.5q88 0 164 34t126.5 89t79.5 125t29 143zM763 401q0 -75 -35.5 -143.5t-100.5 -111.5v458q0 37 -50 54q-31 12 -68 12h-140
q-37 0 -68 -12q-50 -17 -50 -54v-274q0 -42 58 -61q38 -15 81 -15h99v-159q-19 -3 -38 -3q-135 0 -224.5 93t-89.5 216q0 122 89.5 215t224.5 93q134 0 223 -93t89 -215zM389 620q2 2 4 2q9 4 18 4h55q10 0 19 -4h3l1 -1v-322h-69q-10 0 -23 5q-7 2 -8 2v314z" />
    <glyph glyph-name="A" unicode="A" 
d="M446 0v732q0 37 -52 57q-36 13 -73 13h-146q-37 0 -73 -13q-52 -19 -52 -57v-732h144v393h107v-393h145zM194 439v311l4 2q8 4 19 4h62q10 0 18 -4h4v-313h-107z" />
    <glyph glyph-name="B" unicode="B" horiz-adv-x="497" 
d="M406 416q41 20 41 51v265q0 37 -52 57q-36 13 -73 13h-272v-802h272q37 0 73 13q52 20 52 56v296q0 33 -41 51zM194 439v317h54q21 0 38 -7q16 -6 16 -13v-277q0 -7 -16 -13q-17 -7 -38 -7h-54zM194 46v347h54q20 0 38 -6q16 -6 16 -13v-309q0 -6 -16 -12q-17 -7 -38 -7
h-54z" />
    <glyph glyph-name="C" unicode="C" 
d="M321 802h-146q-37 0 -73 -13q-52 -19 -52 -57v-663q0 -37 52 -56q36 -13 73 -13h146q37 0 73 13q52 20 52 56v185h-145l1 -202q0 -1 -5 -3q-9 -3 -18 -3h-62q-10 0 -19 3q-2 1 -4 1v700l4 2q8 4 19 4h62q10 0 18 -4h4v-205h145v185q0 37 -52 57q-36 13 -73 13z" />
    <glyph glyph-name="D" unicode="D" 
d="M323 801h-273v-801h273q36 0 72 13q51 20 51 56v663q0 36 -52 56q-35 13 -71 13zM194 45v711h53q21 0 39 -7q17 -7 17 -13v-672q0 -6 -17 -12q-18 -7 -39 -7h-53z" />
    <glyph glyph-name="E" unicode="E" 
d="M50 0h396v46h-252v347h251v46h-251v317h252v46h-396v-802z" />
    <glyph glyph-name="F" unicode="F" horiz-adv-x="497" 
d="M50 0h144v393h251v46h-251v317h252v46h-396v-802z" />
    <glyph glyph-name="G" unicode="G" 
d="M303 52q-2 -2 -5 -3q-9 -3 -19 -3h-60q-11 0 -20 3q-4 2 -5 2v699q2 2 5 2q8 4 20 4h60q11 0 19 -4l5 -2v-203h143v185q0 36 -51 56q-35 14 -72 14h-148q-37 0 -73 -13q-52 -19 -52 -57v-663q0 -37 52 -56q36 -13 73 -13h148q36 0 72 13q51 20 51 56v370h-217v-46h74
v-341z" />
    <glyph glyph-name="H" unicode="H" 
d="M194 802h-144v-802h144v393h107v-393h145v802h-145v-363h-107v363z" />
    <glyph glyph-name="I" unicode="I" horiz-adv-x="244" 
d="M194 802h-144v-802h144v802z" />
    <glyph glyph-name="J" unicode="J" 
d="M301 51l-4 -2q-11 -3 -20 -3h-60q-9 0 -20 3q-4 2 -5 2v186h-142v-168q0 -36 51 -56q35 -13 72 -13h148q37 0 73 13q52 20 52 56v733h-145v-751z" />
    <glyph glyph-name="K" unicode="K" 
d="M405 416q41 20 41 51v335h-145v-343q0 -7 -16 -13q-17 -7 -38 -7h-53v363h-144v-802h144v393h53q20 0 38 -6q16 -7 16 -13v-374h145v365q0 33 -41 51z" />
    <glyph glyph-name="L" unicode="L" 
d="M194 801h-144v-801h396v45h-252v756z" />
    <glyph glyph-name="M" unicode="M" horiz-adv-x="612" 
d="M309 184l-117 617h-142v-802h61v466l87 -466h140l81 445v-445h143v802h-146l3 -20q-1 -1 -1 -3l-4 -21q-1 -6 -5.5 -31.5t-7.5 -43.5q-6 -32 -20.5 -111.5t-22.5 -120.5z" />
    <glyph glyph-name="N" unicode="N" 
d="M50 801v-801h61v589l189 -589h146v801h-61v-609l-196 609h-139z" />
    <glyph glyph-name="O" unicode="O" 
d="M321 801h-147q-36 0 -72 -13q-52 -20 -52 -56v-664q0 -36 52 -56q35 -13 72 -13h147q37 0 73 13q52 20 52 56v664q0 36 -53 56q-36 13 -72 13zM301 750l1 -699q0 -1 -5 -3q-9 -3 -18 -3h-62q-10 0 -19 3q-4 2 -5 2v700q1 0 2 1t3 1q9 3 19 3h62q10 0 19 -3z" />
    <glyph glyph-name="P" unicode="P" 
d="M321 801h-271v-801h144v393h127q37 0 73 13q52 19 52 56v270q0 38 -53 56q-36 13 -72 13zM194 438v318h53q21 0 38 -7q16 -6 16 -13v-278q0 -7 -16 -13q-17 -7 -38 -7h-53z" />
    <glyph glyph-name="Q" unicode="Q" horiz-adv-x="548" 
d="M323 801h-148q-37 0 -73 -13q-52 -18 -52 -56v-663q0 -39 52 -56q36 -13 73 -13h119l83 -42h121l-106 54q2 1 6 2.5t6 2.5q42 21 42 52v663q0 36 -52 56q-35 13 -71 13zM229 45h-10q-9 0 -20 3q-2 1 -3 2h-2v700q2 2 5 2q8 4 20 4h60q11 0 19 -4l5 -2l1 -693l-75 38v-50z
" />
    <glyph glyph-name="R" unicode="R" 
d="M321 801h-271v-801h142v393h54q20 0 39 -6q16 -7 16 -13v-374h145v364q0 29 -36 50q36 19 36 48v270q0 38 -53 56q-36 13 -72 13zM192 438v318h54q21 0 39 -7q16 -6 16 -13v-278q0 -7 -16 -13q-18 -7 -39 -7h-54z" />
    <glyph glyph-name="S" unicode="S" 
d="M301 51q0 -1 -4 -3q-11 -3 -20 -3h-60q-9 0 -20 3q-4 2 -5 2v182h-142v-164q0 -36 51 -56q35 -13 72 -13h148q37 0 73 13q52 20 52 56v302q0 36 -53 56q-33 12 -72 12h-52h-11.5h-20.5h-21q-13 1 -22 5q-1 0 -2 1v306h2q2 1 3 1q9 4 20 4h60q9 0 20 -3l4 -2v-204h145v186
q0 36 -53 56q-36 13 -72 13h-148q-36 0 -71 -13q-52 -20 -52 -56v-270q0 -36 51 -56q36 -13 72 -13h96q17 0 26 -3h5q1 0 1 -1v-338z" />
    <glyph glyph-name="T" unicode="T" horiz-adv-x="566" 
d="M516 756v45h-466v-45h175v-756h144v756h147z" />
    <glyph glyph-name="U" unicode="U" 
d="M446 68v733h-145l1 -750q0 -1 -5 -3q-9 -3 -18 -3h-62q-10 0 -19 3q-2 1 -4 1v752h-144v-733q0 -36 52 -56q36 -13 73 -13h146q37 0 73 13q52 20 52 56z" />
    <glyph glyph-name="V" unicode="V" horiz-adv-x="524" 
d="M195 801h-145l129 -801h139l156 801h-62l-118 -610z" />
    <glyph glyph-name="W" unicode="W" horiz-adv-x="809" 
d="M195 800h-145l153 -801q120 0 139 18l53 437l75 -455h145l-4 20q1 1 1 3l5 23q2 11 7 39.5t8 42.5l47 251q14 74 33 175t30 158.5t13 68.5l4 20h-61l-116 -611l-101 611h-142l2 -20q0 -1 9 -58q4 -24 6 -37q0 -2 1 -7t1 -6l-52 -452z" />
    <glyph glyph-name="X" unicode="X" horiz-adv-x="585" 
d="M208 801h-146l171 -423l-183 -378h66l148 305l124 -305h147l-193 471l160 330h-64l-124 -258z" />
    <glyph glyph-name="Y" unicode="Y" horiz-adv-x="544" 
d="M198 0h145v299q0 16 -2 41t-2 30q-2 37 4 67q5 26 18 54q22 41 28 57l105 253h-64l-118 -281l-112 281h-150l102 -253q5 -13 15 -33t12 -25q14 -28 19 -54q5 -31 3 -67q-3 -63 -3 -71v-298z" />
    <glyph glyph-name="Z" unicode="Z" horiz-adv-x="581" 
d="M456 44h-240l300 722l4 10l11 24h-405v-45h240l-316 -756h406v45z" />
    <glyph glyph-name="bracketleft" unicode="[" horiz-adv-x="391" 
d="M341 792h-291v-790h291v46h-147v699h147v45z" />
    <glyph glyph-name="backslash" unicode="\" horiz-adv-x="509" 
d="M196 798h-146l263 -801h146z" />
    <glyph glyph-name="bracketright" unicode="]" horiz-adv-x="393" 
d="M343 2v790h-293v-45h148v-699h-148v-46h293z" />
    <glyph glyph-name="asciicircum" unicode="^" horiz-adv-x="464" 
d="M232 797l-182 -178l48 -44l133 131l135 -131l48 44z" />
    <glyph glyph-name="underscore" unicode="_" horiz-adv-x="718" 
d="M668 51h-618v-52h618v52z" />
    <glyph glyph-name="a" unicode="a" 
d="M446 0v732q0 37 -52 57q-36 13 -73 13h-146q-37 0 -73 -13q-52 -19 -52 -57v-732h144v393h107v-393h145zM194 439v311l4 2q8 4 19 4h62q10 0 18 -4h4v-313h-107z" />
    <glyph glyph-name="b" unicode="b" horiz-adv-x="497" 
d="M406 416q41 20 41 51v265q0 37 -52 57q-36 13 -73 13h-272v-802h272q37 0 73 13q52 20 52 56v296q0 33 -41 51zM194 439v317h54q21 0 38 -7q16 -6 16 -13v-277q0 -7 -16 -13q-17 -7 -38 -7h-54zM194 46v347h54q20 0 38 -6q16 -6 16 -13v-309q0 -6 -16 -12q-17 -7 -38 -7
h-54z" />
    <glyph glyph-name="c" unicode="c" 
d="M321 802h-146q-37 0 -73 -13q-52 -19 -52 -57v-663q0 -37 52 -56q36 -13 73 -13h146q37 0 73 13q52 20 52 56v185h-145l1 -202q0 -1 -5 -3q-9 -3 -18 -3h-62q-10 0 -19 3q-2 1 -4 1v700l4 2q8 4 19 4h62q10 0 18 -4h4v-205h145v185q0 37 -52 57q-36 13 -73 13z" />
    <glyph glyph-name="d" unicode="d" 
d="M323 801h-273v-801h273q36 0 72 13q51 20 51 56v663q0 36 -52 56q-35 13 -71 13zM194 45v711h53q21 0 39 -7q17 -7 17 -13v-672q0 -6 -17 -12q-18 -7 -39 -7h-53z" />
    <glyph glyph-name="e" unicode="e" 
d="M50 0h396v46h-252v347h251v46h-251v317h252v46h-396v-802z" />
    <glyph glyph-name="f" unicode="f" 
d="M50 0h144v393h251v46h-251v317h252v46h-396v-802z" />
    <glyph glyph-name="g" unicode="g" 
d="M303 52q-2 -2 -5 -3q-9 -3 -19 -3h-60q-11 0 -20 3q-4 2 -5 2v699q2 2 5 2q8 4 20 4h60q11 0 19 -4l5 -2v-203h143v185q0 36 -51 56q-35 14 -72 14h-148q-37 0 -73 -13q-52 -19 -52 -57v-663q0 -37 52 -56q36 -13 73 -13h148q36 0 72 13q51 20 51 56v370h-217v-46h74
v-341z" />
    <glyph glyph-name="h" unicode="h" 
d="M194 802h-144v-802h144v393h107v-393h145v802h-145v-363h-107v363z" />
    <glyph glyph-name="i" unicode="i" horiz-adv-x="244" 
d="M194 802h-144v-802h144v802z" />
    <glyph glyph-name="j" unicode="j" 
d="M301 51l-4 -2q-11 -3 -20 -3h-60q-9 0 -20 3q-4 2 -5 2v186h-142v-168q0 -36 51 -56q35 -13 72 -13h148q37 0 73 13q52 20 52 56v733h-145v-751z" />
    <glyph glyph-name="k" unicode="k" 
d="M405 416q41 20 41 51v335h-145v-343q0 -7 -16 -13q-17 -7 -38 -7h-53v363h-144v-802h144v393h53q20 0 38 -6q16 -7 16 -13v-374h145v365q0 33 -41 51z" />
    <glyph glyph-name="l" unicode="l" 
d="M194 801h-144v-801h396v45h-252v756z" />
    <glyph glyph-name="m" unicode="m" horiz-adv-x="612" 
d="M309 184l-117 617h-142v-802h61v466l87 -466h140l81 445v-445h143v802h-146l3 -20q-1 -1 -1 -3l-4 -21q-1 -6 -5.5 -31.5t-7.5 -43.5q-6 -32 -20.5 -111.5t-22.5 -120.5z" />
    <glyph glyph-name="n" unicode="n" 
d="M50 801v-801h61v589l189 -589h146v801h-61v-609l-196 609h-139z" />
    <glyph glyph-name="o" unicode="o" 
d="M321 801h-147q-36 0 -72 -13q-52 -20 -52 -56v-664q0 -36 52 -56q35 -13 72 -13h147q37 0 73 13q52 20 52 56v664q0 36 -53 56q-36 13 -72 13zM301 750l1 -699q0 -1 -5 -3q-9 -3 -18 -3h-62q-10 0 -19 3q-4 2 -5 2v700q1 0 2 1t3 1q9 3 19 3h62q10 0 19 -3z" />
    <glyph glyph-name="p" unicode="p" 
d="M321 801h-271v-801h144v393h127q37 0 73 13q52 19 52 56v270q0 38 -53 56q-36 13 -72 13zM194 438v318h53q21 0 38 -7q16 -6 16 -13v-278q0 -7 -16 -13q-17 -7 -38 -7h-53z" />
    <glyph glyph-name="q" unicode="q" horiz-adv-x="548" 
d="M323 801h-148q-37 0 -73 -13q-52 -18 -52 -56v-663q0 -39 52 -56q36 -13 73 -13h119l83 -42h121l-106 54q2 1 6 2.5t6 2.5q42 21 42 52v663q0 36 -52 56q-35 13 -71 13zM229 45h-10q-9 0 -20 3q-2 1 -3 2h-2v700q2 2 5 2q8 4 20 4h60q11 0 19 -4l5 -2l1 -693l-75 38v-50z
" />
    <glyph glyph-name="r" unicode="r" 
d="M321 801h-271v-801h142v393h54q20 0 39 -6q16 -7 16 -13v-374h145v364q0 29 -36 50q36 19 36 48v270q0 38 -53 56q-36 13 -72 13zM192 438v318h54q21 0 39 -7q16 -6 16 -13v-278q0 -7 -16 -13q-18 -7 -39 -7h-54z" />
    <glyph glyph-name="s" unicode="s" 
d="M301 51q0 -1 -4 -3q-11 -3 -20 -3h-60q-9 0 -20 3q-4 2 -5 2v182h-142v-164q0 -36 51 -56q35 -13 72 -13h148q37 0 73 13q52 20 52 56v302q0 36 -53 56q-33 12 -72 12h-52h-11.5h-20.5h-21q-13 1 -22 5q-1 0 -2 1v306h2q2 1 3 1q9 4 20 4h60q9 0 20 -3l4 -2v-204h145v186
q0 36 -53 56q-36 13 -72 13h-148q-36 0 -71 -13q-52 -20 -52 -56v-270q0 -36 51 -56q36 -13 72 -13h96q17 0 26 -3h5q1 0 1 -1v-338z" />
    <glyph glyph-name="t" unicode="t" horiz-adv-x="566" 
d="M516 756v45h-466v-45h175v-756h144v756h147z" />
    <glyph glyph-name="u" unicode="u" 
d="M446 68v733h-145l1 -750q0 -1 -5 -3q-9 -3 -18 -3h-62q-10 0 -19 3q-2 1 -4 1v752h-144v-733q0 -36 52 -56q36 -13 73 -13h146q37 0 73 13q52 20 52 56z" />
    <glyph glyph-name="v" unicode="v" horiz-adv-x="524" 
d="M195 801h-145l129 -801h139l156 801h-62l-118 -610z" />
    <glyph glyph-name="w" unicode="w" horiz-adv-x="809" 
d="M195 800h-145l153 -801q120 0 139 18l53 437l75 -455h145l-4 20q1 1 1 3l5 23q2 11 7 39.5t8 42.5l47 251q14 74 33 175t30 158.5t13 68.5l4 20h-61l-116 -611l-101 611h-142l2 -20q0 -1 9 -58q4 -24 6 -37q0 -2 1 -7t1 -6l-52 -452z" />
    <glyph glyph-name="x" unicode="x" horiz-adv-x="585" 
d="M208 801h-146l171 -423l-183 -378h66l148 305l124 -305h147l-193 471l160 330h-64l-124 -258z" />
    <glyph glyph-name="y" unicode="y" horiz-adv-x="544" 
d="M198 0h145v299q0 16 -2 41t-2 30q-2 37 4 67q5 26 18 54q22 41 28 57l105 253h-64l-118 -281l-112 281h-150l102 -253q5 -13 15 -33t12 -25q14 -28 19 -54q5 -31 3 -67q-3 -63 -3 -71v-298z" />
    <glyph glyph-name="z" unicode="z" horiz-adv-x="581" 
d="M456 44h-240l300 722l4 10l11 24h-405v-45h240l-316 -756h406v45z" />
    <glyph glyph-name="braceleft" unicode="{" horiz-adv-x="540" 
d="M301 412q42 20 42 52v276l1 2q4 4 10 5q15 6 30 6h106v45h-167q-37 0 -73 -13q-53 -20 -53 -57v-273q0 -7 -16 -13q-17 -7 -38 -7h-93v-45h93q20 0 38 -6q16 -6 16 -13v-307q0 -37 54 -55q33 -12 72 -12h167v45h-106q-13 0 -30 5q-9 4 -11 7v307q0 33 -42 51z" />
    <glyph glyph-name="bar" unicode="|" horiz-adv-x="244" 
d="M194 798h-144v-801h144v801z" />
    <glyph glyph-name="braceright" unicode="}" horiz-adv-x="538" 
d="M239 412q-42 -18 -42 -51v-139l-1 -170q-1 0 -2.5 -1t-3.5 -2l-4 -2q-17 -5 -30 -5h-106v-45h167q39 0 72 12q54 18 54 55v307q0 7 9 10q11 6 36 9q15 1 31.5 1t31.5 -0.5t17 -0.5h20v45h-20q-69 0 -80 1q-25 3 -36 9q-9 3 -9 10v273q0 37 -53 57q-36 13 -73 13h-167v-45
h106q15 0 30 -6l4 -2t3.5 -2t2.5 -1l1 -2v-276q0 -32 42 -52z" />
    <glyph glyph-name="asciitilde" unicode="~" horiz-adv-x="642" 
d="M97 426v1v24h190q1 -2 1 -10v-33q0 -19 10 -36q15 -24 43 -24h197q28 0 41 20.5t13 39.5v60q0 19 -13 39.5t-41 20.5h-116v-77h123v-24v-1h-211q0 3 -1 5v10.5t0.5 9.5t0.5 6v11q0 19 -13 39.5t-40 20.5h-178q-27 0 -40 -20.5t-13 -39.5v-60q0 -19 10 -36q17 -24 43 -24
h131v78h-137z" />
    <glyph glyph-name="exclamdown" unicode="&#xa1;" horiz-adv-x="244" 
d="M58 704h127v77h-127v-77zM50 -11h144l-31 687h-90z" />
    <glyph glyph-name="copyright" unicode="&#xa9;" horiz-adv-x="900" 
d="M50 401q0 -98 48.5 -187t142 -146.5t210.5 -57.5q88 0 164 34t126.5 89t79.5 125t29 143t-29 143t-79.5 125t-126.5 89t-164 34q-117 0 -210.5 -57.5t-142 -146.5t-48.5 -187zM479 94l-28 -2q-135 0 -224.5 93t-89.5 216q0 122 89.5 215t224.5 93q134 0 223 -93t89 -215
q0 -67 -29 -129t-82 -107q-30 -27 -52 -36q-19 -7 -57 -19t-43 -14q-1 -1 -5 -1q-5 -1 -16 -1zM486 210q-6 -2 -14 -2h-50q-8 0 -14 2v374q6 2 14 2h50q8 0 14 -2v-114h124v110q0 16 -20 29q-14 8 -31 11q-24 6 -53 6h-117q-29 0 -54 -6q-17 -4 -31 -11q-19 -13 -19 -29
v-366q0 -18 19 -29q14 -7 31 -11q25 -6 54 -6h117q29 0 53 6q17 3 31 11q20 11 20 29v110h-124v-114z" />
    <glyph glyph-name="registered" unicode="&#xae;" horiz-adv-x="900" 
d="M50 401q0 -98 48.5 -187t142 -146.5t210.5 -57.5q88 0 164 34t126.5 89t79.5 125t29 143t-29 143t-79.5 125t-126.5 89t-164 34q-117 0 -210.5 -57.5t-142 -146.5t-48.5 -187zM479 94l-28 -2q-135 0 -224.5 93t-89.5 216q0 122 89.5 215t224.5 93q134 0 223 -93t89 -215
q0 -67 -29 -129t-82 -107q-30 -27 -52 -36q-19 -7 -57 -19t-43 -14q-1 -1 -5 -1q-5 -1 -16 -1zM492 381v-205h130v204q0 14 -15 25q-1 0 -1 0.5t-1 0.5q1 0 1 0.5t1 0.5q15 11 15 26v144q0 17 -21 29q-9 4 -33 11q-29 5 -57 5h-239v-446h130v211h44q20 0 33 -3zM492 576
v-142q-5 -2 -13 -3q-13 -3 -33 -3h-44v154h44q14 0 33 -3z" />
    <glyph glyph-name="questiondown" unicode="&#xbf;" horiz-adv-x="498" 
d="M314 712h128v77h-128v-77zM303 47l-4 -2q-11 -3 -20 -3h-60q-11 0 -20 4q-3 0 -5 2l2 307q8 3 19 4q10 1 50 1h58q38 0 73 12q54 19 52 57l-23 266h-85l-38 -286q-3 -1 -14 -3q-14 -2 -41 -2h-72q-41 0 -73 -13q-52 -17 -52 -56v-270q0 -37 53 -55q36 -13 72 -13h148
q36 0 72 13q53 18 53 55v152h-145v-170z" />
    <glyph glyph-name="multiply" unicode="&#xd7;" horiz-adv-x="400" 
d="M103 537l-53 -50l96 -96l-92 -90l54 -53l93 90l98 -95l51 52l-97 95l91 90l-53 53l-92 -90z" />
    <glyph glyph-name="divide" unicode="&#xf7;" horiz-adv-x="453" 
d="M288 511h-127v-77h127v77zM50 426v-71h353v71h-353zM288 341h-127v-78h127v78z" />
    <glyph glyph-name="quoteleft" unicode="&#x2018;" horiz-adv-x="276" 
d="M177 805l49 19v43l-176 -40v-81h127v59z" />
    <glyph glyph-name="quoteright" unicode="&#x2019;" horiz-adv-x="276" 
d="M98 803l-48 -18v-44l176 40v81h-128v-59z" />
    <glyph glyph-name="quotesinglbase" unicode="&#x201a;" horiz-adv-x="276" 
d="M99 11l-49 -19v-42l176 39v81h-127v-59z" />
    <glyph glyph-name="quotedblleft" unicode="&#x201c;" horiz-adv-x="457" 
d="M177 805l49 19v43l-176 -40v-81h127v59zM359 806l48 18v43l-175 -40v-81h127v60z" />
    <glyph glyph-name="quotedblright" unicode="&#x201d;" horiz-adv-x="457" 
d="M100 804l-50 -19v-44l176 40v81h-126v-58zM282 803l-50 -18v-44l175 40v81h-125v-59z" />
    <glyph glyph-name="quotedblbase" unicode="&#x201e;" horiz-adv-x="421" 
d="M99 11l-49 -19v-42l144 32v-33l177 40v81h-126v-59l-19 -7v66h-127v-59z" />
    <glyph glyph-name="trademark" unicode="&#x2122;" horiz-adv-x="604" 
d="M282 760v-373h50v131l24 -131h86l21 118v-118h91v413h-88l-47 -259l-49 259h-320v-40h85v-373h92v373h55z" />
    <glyph glyph-name="minus" unicode="&#x2212;" horiz-adv-x="453" 
d="M50 426v-71h353v71h-353z" />
    <glyph glyph-name="_FSHallmark" horiz-adv-x="732" 
d="M52 601v74h630v-74h-630zM676 460h-76q0 9 -5 17q-4 5 -14 13q-12 6 -18 8q-14 2 -18 2q-19 0 -36 -9q-16 -10 -16 -22q0 -23 14 -31q16 -9 34 -13l27 -6l23 -6q13 -4 22 -5q7 -1 19 -5q3 -2 8 -4.5t8 -3.5q15 -9 24 -21q8 -14 9 -33q1 -21 -8 -38q-20 -32 -55 -44
q-38 -12 -72 -12q-27 0 -51 7t-44 21t-32 36q-12 21 -12 49l73 -1q0 -3 3 -11q2 -12 11 -20q9 -9 19 -13q13 -7 36 -7q25 0 40 9q15 7 15 19q0 21 -60 36q-56 14 -92 33q-38 20 -38 63q0 36 25 57q24 20 55 30q24 6 52 6q36 0 72 -14q33 -14 50 -50q8 -21 8 -37zM135 349
v-102h-83v313h265v-71h-182v-70h151v-70h-151zM310 285q0 16 11 27q10 10 27 10q16 0 30 -11q12 -11 12 -26t-12 -26q-13 -10 -30 -10q-15 0 -26 11q-12 10 -12 25zM50 133v75h631v-75h-631z" />
    <glyph glyph-name="_Fontastica" horiz-adv-x="629" 
d="M138 333v-147h-87q-1 1 -1 4v510h382v-78h-294v-210h295v-79h-295zM193 475v79h296v146h87v-513h-383v78h296v210h-296zM489 136q-5 -3 -5 -8q0 -7 4 -11q3 -4 9 -4q7 0 14 4l4 -4q-6 -9 -18 -9q-8 0 -16 5q-6 8 -7 16q-1 10 6 17q8 8 17 8q10 0 18 -8l-4 -6l-2 2
q-2 1 -3 2t-7 1h-2q-2 -1 -5 -3zM51 105v44h32v-8h-21v-12h20v-7h-20v-17h-11zM123 149q15 0 22 -12q6 -8 2 -20q-5 -12 -19 -13l-6 -2q-6 0 -9 3q-14 6 -14 19q0 11 7 18q6 7 17 7zM208 149v-44h-3q-1 -1 -3 -1t-7 5l-4 6q-1 1 -2.5 3t-1.5 3l-9 11v-27h-10v44h8q3 -1 5 -6
q7 -7 10 -11q7 -12 8 -13v30h9zM227 141v8h37v-8h-14v-36h-9v36h-14zM364 128q9 0 9 -10q1 -9 -8 -13q-1 -1 -8 -1q-14 0 -21 7q1 1 1 2l1 1q0 2 1 3l14 -4h6q3 3 3 2q0 8 -10 9q-1 0 -2 1t-4 1q-7 1 -7 10q-1 7 6 11q6 2 10 2q11 0 18 -4l-4 -8q-1 1 -3 1q-1 0 -2 1t-3 1
q-1 0 -2 1h-6q-3 0 -3 -3q-2 -2 3 -6q3 -1 6.5 -2.5t4.5 -1.5zM388 141v8h38v-8h-14v-36h-10v36h-14zM444 105v44h11v-44h-11zM548 149h12l9 -21q1 -4 5 -12q1 -6 5 -11h-10l-4 9h-21l-4 -9h-10q11 21 18 44zM292 147h10q2 -5 5 -10t5 -10q0 -1 1.5 -5t2.5 -6t2.5 -6t1.5 -5
h-10q-1 1 -1 4q0 1 -1 2q0 1 -1 3h-20q-1 -1 -1 -5q-1 -1 -1 -2l-2 -2h-9zM136 126v1q0 5 -3 10q-4 4 -11 4q-1 -1 -3 -1q-4 -1 -8 -7t-1 -11q3 -10 13 -10q3 0 4 1q9 1 9 13zM289 122h15l-1 2l-1 2l-1 2l-1 2q-1 1 -1 4q-1 0 -1 2t-1 2zM547 122h14q-1 1 -1 4l-1 2l-1 2
l-1 2q-1 1 -1 2l-1 2l-1 2z" />
    </font>
</defs>
</svg>
